<?xml version="1.0" standalone="no"?>
<!DOCTYPE svg PUBLIC "-//W3C//DTD SVG 20010904//EN"
 "http://www.w3.org/TR/2001/REC-SVG-20010904/DTD/svg10.dtd">
<svg version="1.0" xmlns="http://www.w3.org/2000/svg"
 width="256.000000pt" height="256.000000pt" viewBox="0 0 256.000000 256.000000"
 preserveAspectRatio="xMidYMid meet">
<metadata>
Created by potrace 1.11, written by Peter Selinger 2001-2013
</metadata>
<g transform="translate(0.000000,256.000000) scale(0.100000,-0.100000)"
fill="#000000" stroke="none">
<path d="M325 2365 c-45 -25 -162 -158 -168 -190 -4 -24 29 -94 55 -117 11 -9
83 -77 160 -150 181 -171 193 -183 328 -308 62 -58 143 -134 181 -170 37 -36
91 -88 121 -116 91 -87 93 -66 -23 -221 -110 -147 -188 -232 -445 -488 l-161
-160 -67 0 c-62 0 -70 -2 -92 -28 -29 -34 -31 -75 -4 -126 26 -51 67 -85 124
-101 108 -30 175 38 144 147 -2 6 111 125 251 263 196 194 289 278 406 366 84
63 155 114 159 114 7 0 186 -135 276 -209 30 -25 161 -152 291 -283 l236 -238
-5 -48 c-9 -93 41 -131 142 -108 122 29 187 156 116 228 -28 27 -35 29 -90 26
l-60 -3 -236 240 c-157 160 -267 282 -330 365 -52 69 -103 136 -114 150 -11
14 -20 28 -20 31 0 4 68 71 151 150 83 79 188 180 234 224 45 44 148 143 229
220 81 77 171 163 201 191 63 61 106 126 102 154 -3 20 -100 149 -123 163 -7
4 -20 14 -28 22 -8 8 -21 15 -30 15 -8 0 -18 5 -22 11 -11 18 -56 0 -109 -44
-27 -23 -119 -113 -205 -201 -85 -87 -257 -261 -382 -387 l-226 -229 -399 398
c-421 421 -447 445 -484 458 -39 13 -42 12 -84 -11z"/>
</g>
</svg>
