<svg xmlns="http://www.w3.org/2000/svg" xmlns:xlink="http://www.w3.org/1999/xlink"><symbol id="arrow" viewBox="0 0 24 24"><path d="M23.9 11.7l-8.2-8.4c-.2-.2-.4-.2-.6 0l-2.2 2.3c-.2.2-.2.4 0 .6l3.8 3.8H.4c-.2 0-.4.2-.4.4v3.2c0 .2.2.4.4.4h16.3l-3.8 3.8c-.2.2-.2.4 0 .6l2.2 2.3c.1.1.2.1.3.1.1 0 .2 0 .3-.1l8.2-8.4c.1-.2.1-.4 0-.6z"/></symbol><symbol id="button" viewBox="0 0 24 24"><path d="M12 0C5.4 0 0 5.4 0 12s5.4 12 12 12 12-5.4 12-12S18.6 0 12 0zm0 22.6C6.2 22.6 1.4 17.8 1.4 12S6.2 1.4 12 1.4 22.6 6.2 22.6 12 17.8 22.6 12 22.6z"/><path d="M12 2.9C7 2.9 2.9 7 2.9 12S7 21.1 12 21.1s9.1-4.1 9.1-9.1S17 2.9 12 2.9zm0 16.8c-4.3 0-7.7-3.5-7.7-7.7S7.7 4.3 12 4.3s7.7 3.5 7.7 7.7-3.4 7.7-7.7 7.7z"/><path d="M16.5 13.5c-.6-.6-1.6-.8-2.4-.4L13 12l1.1-1.1c.3.1.6.2.9.2.5 0 1.1-.2 1.5-.6.8-.8.8-2.2 0-3-.8-.8-2.2-.8-3 0-.7.7-.8 1.6-.4 2.4L12 11l-1.1-1.1c.4-.8.2-1.7-.4-2.4-.8-.8-2.2-.8-3 0-.8.8-.8 2.2 0 3 .7.7 1.6.8 2.4.4L11 12l-1.1 1.1c-.8-.4-1.8-.2-2.4.4-.8.8-.8 2.2 0 3 .8.8 2.2.8 3 0 .7-.7.8-1.6.4-2.4L12 13l1.1 1.1c-.4.8-.2 1.7.4 2.4.8.8 2.2.8 3 0 .8-.8.8-2.2 0-3zm-2-5c.3-.3.7-.3 1 0 .3.3.3.7 0 1-.3.3-.7.3-1 0-.3-.3-.3-.7 0-1zm-5 1c-.3.3-.7.3-1 0-.3-.3-.3-.7 0-1 .3-.3.7-.3 1 0 .3.3.3.7 0 1zm0 6c-.3.3-.7.3-1 0-.3-.3-.3-.7 0-1 .3-.3.7-.3 1 0 .3.3.3.7 0 1zm6 0c-.3.3-.7.3-1 0-.3-.3-.3-.7 0-1 .3-.3.7-.3 1 0 .3.3.3.7 0 1z"/></symbol><symbol id="cart" viewBox="0 0 24 24"><path d="M22.1 23L20.4 5.3c0-.5-.5-.8-.9-.8h-3C16.5 2 14.5 0 12 0S7.4 2 7.4 4.5h-3c-.5 0-.9.4-.9.8L1.7 23c-.1.6.4 1 .9 1h18.6c.6 0 1-.5.9-1zM11.9 1.9c1.4 0 2.6 1.2 2.6 2.6H9.3c0-1.4 1.2-2.6 2.6-2.6zM3.7 22.1L5.3 6.4h2.2v1.9c0 .5.4.9.9.9s.9-.4.9-.9V6.4h5.3v1.9c0 .5.4.9.9.9s.9-.4.9-.9V6.4h2.2l1.6 15.8H3.7z"/></symbol><symbol id="fb" viewBox="0 0 20 20"><path d="M3.4-175.2l5.2-4.1 5.2 4.2C101.1-105 141.2-62.4 169.2-19.5c30.3 46.3 38.9 106.3 8.6 154.9-38.9 62.2-124.3 64.1-169.4 5-42.5 55.1-129.1 59.2-169.2-4.9-31.3-47.9-21.7-108.8 8.6-155C-124.1-62.4-84.9-105 3.4-175.2zm5.1 17.1c-86.3 69.3-120 106.7-146.8 147.6-27.8 42.5-35.3 96.1-8.5 137 35 56 116 51.6 148-5.6l7.3-13 7.2 13c32.1 57.9 113 61.6 148 5.6 26-41.8 19.3-94.7-8.4-137.1-26-39.8-65.5-81.7-146.8-147.5z"/><path d="M14.6 6.5h-3.2V4.4c0-.8.5-.9.9-.9h2.2V0h-3.1C8.1 0 7.3 2.6 7.3 4.2v2.3h-2V10h2v10h4.2V10h2.8l.3-3.5z"/></symbol><symbol id="inst" viewBox="0 0 20 20"><path d="M3.4-175.2l5.2-4.1 5.2 4.2C101.1-105 141.2-62.4 169.2-19.5c30.3 46.3 38.9 106.3 8.6 154.9-38.9 62.2-124.3 64.1-169.4 5-42.5 55.1-129.1 59.2-169.2-4.9-31.3-47.9-21.7-108.8 8.6-155C-124.1-62.4-84.9-105 3.4-175.2zm5.1 17.1c-86.3 69.3-120 106.7-146.8 147.6-27.8 42.5-35.3 96.1-8.5 137 35 56 116 51.6 148-5.6l7.3-13 7.2 13c32.1 57.9 113 61.6 148 5.6 26-41.8 19.3-94.7-8.4-137.1-26-39.8-65.5-81.7-146.8-147.5z"/><path d="M14.5 0h-9C2.5 0 0 2.5 0 5.5v9c0 3 2.5 5.5 5.5 5.5h9c3 0 5.5-2.5 5.5-5.5v-9c0-3-2.5-5.5-5.5-5.5zm3.7 14.5c0 2.1-1.7 3.7-3.7 3.7h-9c-2.1 0-3.7-1.7-3.7-3.7v-9c0-2.1 1.7-3.7 3.7-3.7h9c2.1 0 3.7 1.7 3.7 3.7v9zM4.9 10c0 2.8 2.3 5.1 5.1 5.1s5.1-2.3 5.1-5.1-2.3-5.1-5.1-5.1S4.9 7.1 4.9 10zm1.7 0c0-1.9 1.5-3.4 3.4-3.4s3.4 1.5 3.4 3.4c0 1.8-1.5 3.4-3.4 3.4S6.6 11.8 6.6 10zm7.9-6.3c-.2.2-.4.6-.4.9 0 .3.1.7.4.9.2.2.6.4.9.4.3 0 .7-.1.9-.4.2-.2.4-.6.4-.9 0-.3-.1-.7-.4-.9-.2-.2-.6-.4-.9-.4-.4 0-.7.2-.9.4z"/></symbol><symbol id="needle" viewBox="0 0 24 24"><path d="M18.8 2.8C17 1 14.6 0 12 0 9.4 0 7 1 5.2 2.8c-1 1-1.7 2.1-2.2 3.4-.5 1.2-.7 2.5-.6 3.9 0 .3.2.5.5.5s.5-.2.5-.5c-.1-2.5.8-4.9 2.5-6.6C9.3.1 14.7.1 18.1 3.5c3.4 3.4 3.4 8.8 0 12.2-1.3 1.3-2.8 2.1-4.6 2.4.1-.9.1-1.9.2-2.8h1.7c.9 0 1.7-.3 2.4-1 .6-.6 1-1.5 1-2.4 0-.9-.3-1.8-.9-2.3-.6-.6-1.5-1-2.4-1h-1.6V5.5c.1.1.3.1.4.3.2.2.4.5.4.9v.2c0 .3.2.5.5.5.1 0 .3-.1.4-.1.1-.1.1-.2.1-.4v-.2c-.1-.7-.3-1.3-.7-1.7-.3-.3-.7-.5-1.1-.6v-.2c0-.5-.2-.9-.5-1.3-.3-.3-.8-.5-1.3-.5s-.9.2-1.2.5c-.3.3-.5.8-.5 1.3v.1h-.1c-.6 0-1.3.3-1.8.8S7.7 6.3 7.7 7s.3 1.4.8 1.9c.5.4 1.2.7 1.9.7h.3v.8c.1 1.3.1 2.6.2 3.8h-1c-.7 0-1.3.3-1.7.7-.5.5-.7 1.1-.7 1.7 0 .7.3 1.3.7 1.7.5.5 1.1.7 1.7.7h1.6c.2 1.5.4 3 .6 4.4 0 .2.2.4.5.4.1 0 .3-.1.3-.1.1-.1.1-.2.1-.3.2-1.5.3-3 .4-4.5.9-.1 1.8-.4 2.7-.8 1-.5 1.9-1.1 2.7-1.9 1.8-1.8 2.8-4.2 2.8-6.8 0-2.4-1-4.8-2.8-6.6zm-6.1 12.4c-.1 1.2-.1 2.5-.2 3.8-.1-1.2-.3-2.5-.4-3.8h.6zm-.9-9.9c.3 0 .5-.2.5-.5s-.2-.5-.5-.5h-.4v-.1c0-.2.1-.4.2-.5.1-.1.3-.2.5-.2s.4.1.5.2c.1.1.2.3.2.5l-.1 6.1c0 1.3-.1 2.6-.1 3.9H12c-.1-1.3-.2-2.6-.2-3.9l-.2-5h.2zm-.5 12.9H9.9c-.4 0-.8-.2-1-.4-.3-.3-.4-.6-.4-1s.2-.8.4-1c.3-.3.6-.4 1-.4H11c.1.8.2 1.8.3 2.8zm2.4-4c.1-1.3.1-2.6.1-3.9v-.8h1.6c.6 0 1.2.2 1.6.7.4.4.6 1 .6 1.6 0 .6-.2 1.2-.7 1.6-.4.4-1 .7-1.6.7l-1.6.1zm-3.3-8.9h.1l.2 3.2h-.3c-.4 0-.8-.2-1.1-.5-.4-.2-.5-.6-.5-1s.2-.8.5-1.1c.2-.4.6-.6 1.1-.6z"/></symbol><symbol id="people" viewBox="0 0 24 24"><path d="M13.8 23.1h-1.3v-7.9c0-.3-.2-.5-.5-.5s-.5.2-.5.5v7.9h-1.3v-10h3.6m.9 1.4c.2 0 .3-.1.5-.1 0 .8.7 1.5 1.5 1.5h.4v7.7c0 .3.2.5.5.5h4.2c.3 0 .5-.2.5-.5v-7.7h.4c.8 0 1.5-.7 1.5-1.5v-3.8c0-1.7-1.2-3.1-2.7-3.6.3-.4.5-.9.5-1.4v-.4C22 4 21 3 19.8 3c-1.2 0-2.2 1-2.2 2.2v.4c0 .5.2 1 .5 1.4-.4.1-.7.3-1.1.5v-.4c0-1.4-1.2-2.6-2.6-2.6H14c.4-.4.6-1 .6-1.6v-.3C14.6 1.1 13.4 0 12 0S9.4 1.1 9.4 2.6V3c0 .6.2 1.2.6 1.6h-.3c-1.4 0-2.6 1.2-2.6 2.6v.3c-.3-.2-.6-.4-1-.5.3-.4.5-.9.5-1.4v-.4C6.6 4 5.6 3 4.4 3S2.2 4 2.2 5.2v.4c0 .5.2 1 .5 1.4C1.2 7.4 0 8.9 0 10.6v3.8c0 .8.7 1.5 1.5 1.5h.4v7.7c0 .3.2.5.5.5h4.2c.3 0 .5-.2.5-.5v-7.7h.4c.8 0 1.5-.7 1.5-1.5.2.1.3.1.5.1v9c0 .3.2.5.5.5h4.5c.3 0 .5-.2.5-.5v-9zM3.2 5.2c0-.7.6-1.2 1.2-1.2s1.2.6 1.2 1.2v.4c0 .7-.6 1.2-1.2 1.2s-1.2-.5-1.2-1.2v-.4zM6 23.1H4.9v-7.2c0-.3-.2-.5-.5-.5s-.5.2-.5.5v7.3H2.8v-9H6v8.9zm1.9-8.7c0 .3-.2.5-.5.5h-.5v-2.5c0-.3-.2-.5-.5-.5-.2.1-.4.3-.4.5v.6H2.8v-2.1c0-.3-.2-.5-.5-.5s-.5.2-.5.5v4h-.3c-.3 0-.5-.2-.5-.5v-3.8c0-1.5 1.2-2.8 2.8-2.8h1.4c.8 0 1.5.3 2 .9V12c0 .7.3 1.3.7 1.8v.6zM12 .9c.9 0 1.6.7 1.6 1.6v.4c0 .9-.7 1.6-1.6 1.6s-1.6-.7-1.6-1.6v-.3c0-.9.7-1.7 1.6-1.7zM15.9 12c0 .7-.5 1.4-1.2 1.6V7.1c0-.3-.2-.5-.5-.5s-.5.2-.5.5v5h-3.6v-5c0-.3-.2-.5-.5-.5s-.5.2-.5.5v6.4c-.7-.2-1.2-.8-1.2-1.6V7.1c0-.9.7-1.6 1.6-1.6h1.8v1.3c0 .3.2.5.5.5s.5-.2.5-.5V5.5h1.8c.9 0 1.6.7 1.6 1.6V12zm2.5-6.8c0-.7.6-1.2 1.2-1.2.7 0 1.2.6 1.2 1.2v.4c0 .7-.6 1.2-1.2 1.2-.7 0-1.2-.6-1.2-1.2v-.4zm2.8 17.9h-1.1v-6.7-.6c0-.3-.2-.5-.5-.5s-.5.2-.5.5V23H18v-9h3.2v9.1zm1.3-8.2h-.4v-4c0-.3-.2-.5-.5-.5s-.5.2-.5.5V13H18v-.6c0-.3-.2-.5-.5-.5s-.5.2-.5.5v2.5h-.4c-.3 0-.5-.2-.5-.5v-.6c.4-.5.7-1.1.7-1.8V8.7c.5-.6 1.3-.9 2-.9h1.4c1.5 0 2.8 1.2 2.8 2.8v3.8c.1.3-.2.5-.5.5z"/></symbol><symbol id="quote" viewBox="0 0 24 24"><path d="M0 12.5h3.8L1 22.1h4.3l4.8-10.6V2.4H0zM13.9 2.4v10.1h3.9l-2.9 9.6h4.3L24 11.5V2.4z"/></symbol><symbol id="search" viewBox="0 0 24 24"><path d="M16 2.7C12.3-1 6.4-1 2.7 2.7-1 6.4-1 12.3 2.7 16c3.3 3.3 8.3 3.6 12 1.1.1.4.3.7.5 1l5.3 5.3c.8.8 2 .8 2.8 0 .8-.8.8-2 0-2.8L18 15.3c-.3-.3-.6-.5-1-.5 2.6-3.7 2.3-8.8-1-12.1zm-1.7 11.6c-2.7 2.7-7.2 2.7-9.9 0s-2.7-7.2 0-9.9 7.2-2.7 9.9 0c2.8 2.8 2.8 7.2 0 9.9z"/></symbol><symbol id="sheer" viewBox="0 0 60 22"><path d="M38.9 11.5c0 .3.1.5.1.7.4 1.9 1.9 3.1 3.8 3.3 1.7.1 3-.5 4-1.9.5-.7 1.3-.8 1.9-.2.4.3.4.7.1 1.1-.2.2-.3.4-.5.6-.6.9-1.5 1.5-2.5 1.8-1.7.6-3.4.7-5 .1-2.2-.8-3.6-2.5-4-4.8-.2-1.4-.1-2.9.6-4.2 1-1.9 2.5-3 4.5-3.3 1.4-.2 2.8-.1 4 .5 1.8.9 2.9 2.3 3.4 4.3.1.5.2 1.1.2 1.6 0 .3-.1.5-.5.5h-9.8c0-.1-.2-.1-.3-.1zm8.5-2C47.1 7.7 45 6.2 43 6.3c-2 .1-4 1.7-4.1 3.2h8.5zM24.9 11.5c0 .2 0 .3.1.4.4 2.1 2.1 3.5 4.1 3.5 1.6 0 2.8-.6 3.7-1.9.5-.7 1.4-.8 2-.2.3.3.3.7.1 1-.1.2-.3.3-.4.5-.7 1-1.6 1.7-2.8 2-1.7.5-3.4.6-5 0-2.3-.9-3.6-2.7-3.9-5.2-.1-1.2 0-2.4.5-3.5.9-2.1 2.5-3.4 4.8-3.7 1.2-.2 2.4-.1 3.6.4 2 .9 3.2 2.4 3.7 4.6.1.5.1 1 .2 1.5 0 .4-.1.5-.5.5H25.5c-.2.1-.4.1-.6.1zm8.6-2.1c-.3-1.7-2.3-3.2-4.3-3.1-1.9.1-4 1.6-4.1 3.1h8.4zM55.9 12.4l.3.3c1.1.9 2.2 1.8 3.3 2.8.1.1.2.1.2.2.4.4.4 1 .1 1.4-.3.4-.9.5-1.3.1-.8-.6-1.5-1.3-2.2-1.9-1.1-.9-2.1-1.8-3.2-2.7-.1-.1-.2-.2-.4-.3v8.6c0 .6-.5 1-1 .9-.5 0-.9-.4-.9-1v-.4V5.3v-.5c0-.4 0-.4.4-.4H56c1.9-.1 4 1.4 4.2 3.6.2 2-1.2 3.8-3.2 4.2-.5.1-.8.2-1.1.2zm-3.4-1.5H55.6c.3 0 .5 0 .8-.1.9-.3 1.5-.8 1.8-1.7.4-1.6-.8-3-2.4-3H52.6c-.1 1.6-.1 3.2-.1 4.8zM19.6 11.5h-5.5V16.1c0 .2 0 .3-.1.5-.1.4-.6.7-1 .7-.5 0-.8-.4-.9-.9v-.3-15c0-.2 0-.4.1-.6.2-.4.6-.7 1.1-.6.4.1.8.4.8.9v8.6c.3.1 5.1.1 5.4 0V9 5.6v-.3c0-.5.4-.9.9-.9s.9.3 1 .9V16.4c-.1.5-.5.9-1 .9s-.9-.4-1-.9v-.3V12c.2-.1.2-.3.2-.5zM5.5 17.4c-1.3 0-2.5-.3-3.7-1-.5-.3-.9-.6-1.3-1.1-.2-.2-.3-.5-.5-.7-.2-.4-.1-.8.2-1.1.4-.4.9-.5 1.4-.2.4.2.6.5.8.7l.6.6c.6.6 1.3.9 2.2 1 .8.1 1.6.1 2.3-.2.3-.1.6-.3.9-.5.6-.5.7-1.3 0-1.8-.3-.2-.7-.4-1-.6-.9-.4-1.8-.6-2.7-.9-.8-.2-1.5-.4-2.2-.7-.3-.1-.6-.2-.8-.4C1 10.1.6 9.5.5 8.7.1 7.3.7 6 2.2 5.3c2.2-1.1 4.4-1.1 6.5.1.4.3.8.6 1.1.9.3.2.4.5.5.9.2.6-.1.9-.6 1-.4.1-.8 0-1.2-.4.1-.1 0-.2-.1-.2-.5-.8-1.2-1.2-2.1-1.4-.9-.1-1.8-.1-2.6.2-.3.1-.6.3-.9.5-.6.5-.6 1.2 0 1.7.4.4.8.6 1.3.8 1.1.3 2.1.5 3.2.8.7.2 1.4.4 2 .7.8.4 1.4 1 1.6 2 .2 1.1 0 2.1-.9 2.9-1 .9-2.1 1.4-3.4 1.6-.4-.1-.7 0-1.1 0z"/></symbol><symbol id="star" viewBox="0 0 24 24"><path d="M23.2 8.5l-7.2-1L12.8 1c-.3-.7-1.3-.7-1.7 0L8 7.5l-7.2 1C0 8.7-.3 9.6.3 10.1l5.2 5-1.2 7.1c-.1.8.7 1.3 1.4 1l6.4-3.4 6.4 3.4c.7.4 1.5-.2 1.4-1l-1.2-7.1 5.2-5c.4-.5.1-1.4-.7-1.6zm-6.3 5.7c-.2.2-.3.5-.3.8l1 5.7-5.2-2.7c-.3-.1-.6-.1-.9 0l-5.2 2.7 1-5.7c.1-.3 0-.6-.3-.8l-4-4.1 5.8-.8c.3 0 .6-.2.7-.5L12 3.6l2.6 5.2c.1.3.4.5.7.5l5.8.8-4.2 4.1z"/></symbol><symbol id="tel" viewBox="0 0 24 24"><path d="M20.6 24h-.3c-3.5-.4-7-1.6-9.9-3.5-2.8-1.7-5.1-4.1-6.9-6.9-1.9-3-3.1-6.4-3.5-10-.1-.9.2-1.7.7-2.4C1.3.5 2.1.1 3 0H6.6c1.6 0 3 1.2 3.2 2.8.1 1 .4 1.9.7 2.8.4 1.2.2 2.6-.7 3.5l-.8.8c1.3 2 3 3.7 5 5l.8-.8c.9-.9 2.3-1.2 3.5-.7.9.3 1.9.6 2.8.7 1.7.2 2.9 1.7 2.8 3.3v3.3c0 .9-.3 1.7-1 2.3-.5.7-1.3 1-2.3 1 .1 0 .1 0 0 0zM6.6 2.2H3.3c-.4 0-.7.2-.8.4-.2.2-.3.5-.3.8.3 3.2 1.4 6.3 3.2 9 1.6 2.5 3.7 4.7 6.2 6.2 2.7 1.7 5.8 2.9 9 3.2.4 0 .6-.1.9-.3.2-.2.3-.5.3-.8v-3.3c0-.6-.4-1-.9-1.1-1.1-.1-2.2-.4-3.3-.8-.4-.2-.9-.1-1.2.2L15 17.1c-.3.3-.9.4-1.3.2-2.9-1.7-5.3-4.1-7-7-.3-.4-.2-1 .2-1.3l1.4-1.4c.3-.3.4-.8.2-1.2-.4-1-.7-2.1-.8-3.3-.1-.5-.6-.9-1.1-.9z"/></symbol><symbol id="user" viewBox="0 0 24 24"><path d="M16 11.7c1.5-1.2 2.5-3.1 2.5-5.2C18.5 2.9 15.6 0 12 0S5.5 2.9 5.5 6.5c0 2.1 1 4 2.5 5.2-4.6 1.6-8 6-8 11.3 0 .6.5 1 1 1h22c.6 0 1-.5 1-1 0-5.4-3.5-9.7-8-11.3zM7.5 6.5C7.5 4 9.5 2 12 2s4.5 2 4.5 4.5-2 4.5-4.5 4.5-4.5-2-4.5-4.5zM2.1 22c.5-5 4.8-9 9.9-9s9.4 3.9 9.9 9H2.1z"/></symbol><symbol id="vk" viewBox="0 0 20 20"><path d="M3.4-175.2l5.2-4.1 5.2 4.2C101.1-105 141.2-62.4 169.2-19.5c30.3 46.3 38.9 106.3 8.6 154.9-38.9 62.2-124.3 64.1-169.4 5-42.5 55.1-129.1 59.2-169.2-4.9-31.3-47.9-21.7-108.8 8.6-155C-124.1-62.4-84.9-105 3.4-175.2zm5.1 17.1c-86.3 69.3-120 106.7-146.8 147.6-27.8 42.5-35.3 96.1-8.5 137 35 56 116 51.6 148-5.6l7.3-13 7.2 13c32.1 57.9 113 61.6 148 5.6 26-41.8 19.3-94.7-8.4-137.1-26-39.8-65.5-81.7-146.8-147.5z"/><path d="M9.8 15.6H11s.4 0 .5-.2c.2-.2.2-.5.2-.5s0-1.6.7-1.8c.7-.2 1.7 1.5 2.7 2.2.7.5 1.3.4 1.3.4h2.7s1.4-.1.7-1.2c-.1-.1-.4-.8-2-2.3-1.7-1.5-1.5-1.3.6-4 1.2-1.6 1.7-2.6 1.6-3.1-.1-.4-1-.3-1-.3h-3s-.2 0-.4.1l-.3.3s-.5 1.3-1.1 2.3c-1.3 2.3-1.9 2.4-2.1 2.3-.5-.3-.4-1.3-.4-2 0-2.2.3-3.1-.7-3.4-.3-.1-.6-.1-1.4-.1-1.1 0-2 0-2.5.3-.3.2-.6.5-.4.5.2 0 .7.1.9.4.3.5.3 1.5.3 1.5s.1 2.5-.4 2.9c-.5.2-1-.3-2.2-2.3-.6-1.1-1.1-2.2-1.1-2.2S4.1 5.1 4 5c-.2-.1-.5-.2-.5-.2H.7s-.4 0-.6.2c-.1.2 0 .5 0 .5s2.2 5.2 4.8 7.9c2.3 2.4 4.9 2.2 4.9 2.2z"/></symbol></svg>