<svg xmlns="http://www.w3.org/2000/svg" fill="#F81824" viewBox="0 0 50 50">
    <path d="M27.6 0c-.9 0-1.7.1-2.6.2-.9-.1-1.8-.2-2.6-.2C16 0 10.3 3.1 6.3 8l-.1.1c-1.3 1.6-2.4 3.4-3.3 5.3 0 0 0 .1-.1.1-.6 1.3-1.1 2.8-1.5 4.2 0 .1-.1.2-.1.3-.6 2.2-.9 4.6-.9 7 0 3.8.8 7.4 2.1 10.6v.1c.8 1.9 1.8 3.7 3 5.3l.1.1c1.2 1.6 2.6 3 4.1 4.3l.1.1c3.6 2.8 7.9 4.5 12.5 4.5.8 0 1.7-.1 2.6-.2.9.1 1.7.2 2.6.2 12.1 0 22-11.2 22-25S39.7 0 27.6 0zm-9.1 2.3c-.3.1-.6.3-.8.5-.2.1-.3.2-.5.3-.2.1-.5.3-.7.5h-1.7c1.3-.6 2.6-1.1 3.9-1.3-.1-.1-.2-.1-.2 0zM9.8 39.7H6.7c-.8-1.1-1.4-2.2-2-3.4H8c.1.3.3.6.4.9.1.1.1.3.2.4.2.3.4.7.6 1 .1.1.1.3.2.4 0 .2.2.4.4.7zm-5.5-25h3.3c-.2.4-.3.8-.4 1.1-.1.1-.2.2-.2.3-.1.4-.2.7-.3 1.1H3.3c.3-.8.6-1.7 1-2.5zM2.1 25c0-.6 0-1.2.1-1.7h3.4c0 .6-.1 1.1-.1 1.7v.9H2.2c-.1-.3-.1-.6-.1-.9zm3.6 2.6c0 .4.1.7.1 1.1v.1c.1.5.1 1 .2 1.4H2.6c-.2-.8-.3-1.7-.4-2.6h3.5zm.5-8.6c0 .1 0 .2-.1.3 0 .1 0 .2-.1.3-.1.5-.2 1.1-.3 1.6V21.5H2.4c.1-.9.3-1.7.5-2.6h3.3zm.2 12.9c0 .1.1.2.1.3v.1c.1.5.3 1 .5 1.6 0 .1.1.2.1.3 0 .1.1.2.1.3H3.9c-.3-.8-.6-1.7-.8-2.6h3.3zm2.9-20.8c-.1.1-.1.3-.2.4-.2.3-.4.7-.6 1-.1.1-.1.3-.2.4H5.1c.7-1.2 1.4-2.4 2.2-3.4h3c-.1.2-.2.3-.3.5-.2.3-.5.7-.7 1.1zm2.5-5.9h2.4l-.6.6-.5.5-.5.5-.5.5c-.1.2-.3.3-.4.5H8.8c.9-1 1.9-1.9 3-2.6zM8 41.4h3c.1.1.2.3.3.4.3.3.5.6.8 1l.5.5c.2.2.3.4.5.5l.2.2h-2.6c-1-.8-1.9-1.7-2.7-2.6zm10.7 6.5c-2-.4-3.8-1.2-5.6-2.2h2.1c.1.1.2.2.3.2.2.1.4.3.5.4.3.2.7.5 1 .7.2.1.3.2.5.3.3.2.6.3.8.5.2 0 .3 0 .4.1zm8.9.4c-.7 0-1.4 0-2-.1h-.3-.1c-.3 0-.6-.1-.9-.1h-.1c-.3-.1-.6-.1-.8-.2h-.1c-.3-.1-.5-.1-.8-.2-.1 0-.2-.1-.2-.1-.2-.1-.4-.1-.7-.2-.2-.1-.3-.1-.5-.2-.1 0-.2-.1-.4-.1-4.6-2-8.5-5.8-10.8-10.7 0 0 0-.1-.1-.1-.1-.3-.2-.5-.4-.8 0-.1-.1-.2-.1-.3l-.3-.6c-.1-.1-.1-.3-.2-.4-.1-.2-.1-.4-.2-.6-.1-.2-.1-.3-.1-.5-.1-.2-.1-.4-.2-.5 0-.2-.1-.3-.1-.5s-.1-.4-.1-.5c0-.2-.1-.3-.1-.5s-.1-.4-.1-.6c0-.2-.1-.4-.1-.5 0-.2-.1-.4-.1-.6 0-.2-.1-.3-.1-.5s0-.4-.1-.6v-.5-.7-.4-1.1-1.1-.4-.7-.5c0-.2 0-.4.1-.6 0-.2 0-.3.1-.5 0-.2.1-.4.1-.6 0-.2.1-.4.1-.5 0-.2.1-.4.1-.6 0-.2.1-.3.1-.5s.1-.4.1-.5c0-.2.1-.3.1-.5.1-.2.1-.4.2-.5 0-.2.1-.3.1-.5.1-.2.1-.4.2-.6 0-.1.1-.3.2-.4l.3-.6c0-.1.1-.2.1-.3.1-.3.2-.5.4-.8 0 0 0-.1.1-.1 2.2-5.8 6-9.7 10.7-11.7.1 0 .2-.1.4-.1.2-.1.3-.1.5-.2s.4-.1.7-.2c.1 0 .2-.1.2-.1.3-.1.5-.2.8-.2h.1c.3-.1.6-.1.8-.2h.1c.3-.1.6-.1.9-.1h.4c.7-.1 1.3-.1 2-.1 11.2 0 20.3 10.4 20.3 23.3s-9.1 23.1-20.2 23.1z"/>
    <path d="M24.9 23.1v-9.2h3.8c4 0 5.7 1.6 5.7 6 0 3.7-1.8 5.8-5.1 5.8h-1.4v2h2.9v2.6h-2.9V34h-3v-3.6h-1.7v-2.6h1.7v-2h-1.7v-2.6h1.7zm3.6 0c2.2 0 2.9-1 2.9-3.4 0-2.1-.7-3.2-2.6-3.2-.3 0-.6 0-.9.1v6.5h.6z"/>
</svg>
