<svg xmlns="http://www.w3.org/2000/svg" fill="#F81824" viewBox="0 0 50 50">
    <path d="M44.8 8.6L29.5.3C28-.4 26 .2 25.3 1.6l-8.9 16.6H5.5c-1.4 0-2.5 1.1-2.5 2.5v26.8C3 48.9 4.1 50 5.5 50h34.7c1.4 0 2.5-1.1 2.5-2.5v-6.3h1c.5 0 1-.4 1-1V33c0-.5-.4-1-1-1h-1v-7.1c0-1.1-.8-2.2-1.9-2.4l5.3-9.8c.7-1.4.2-3.2-1.3-4.1zM33.9 4.9l-9.5 17.7h-2.7L31.8 3.8l2.1 1.1zM27 2.5c.3-.5 1-.8 1.6-.5l1.5.8-10.6 19.8h-3.3L27 2.5zM4.9 20.6c0-.2.2-.5.5-.5h9.8l-1.3 2.4H5.4c-.2 0-.4 0-.5.1v-2zm35.7 26.9c0 .3-.2.5-.5.5H5.4c-.3 0-.5-.2-.5-.5V25.1c0-.3.2-.5.5-.5H40c.3 0 .5.2.5.5v7.1h-3.7c-1.6 0-2.9 1.3-2.9 2.9v3.3c0 1.6 1.3 2.9 2.9 2.9h3.7l.1 6.2zm2-13.4l.1 5.2h-5.8c-.5 0-1-.4-1-1V35c0-.5.4-1 1-1h5.7zm1.7-22.2l-5.8 10.7h-12l9-16.7 8.2 4.5c.7.2.9.9.6 1.5z"/>
    <path d="M41.6 11l-.5-.2c-1.2-.7-2.8-.2-3.5 1l-.6 1.1c-.3.6-.4 1.3-.2 2s.7 1.2 1.3 1.5l.5.2c.4.2.8.3 1.2.3 1 0 1.8-.5 2.3-1.3l.6-1.1c.6-1.3.1-2.9-1.1-3.5zm-.7 2.6l-.6 1.1c-.2.3-.6.4-.9.2l-.5-.3c-.1-.1-.2-.2-.3-.4-.1-.2-.1-.4.1-.5l.6-1.1c.1-.2.4-.4.6-.4.1 0 .2 0 .3.1l.5.2c.2.3.3.7.2 1.1z"/>
</svg>
