<svg xmlns="http://www.w3.org/2000/svg" fill="#F0F0F0" viewBox="0 0 250 98">
    <style>
        .st0{display:none}
    </style>
    <path class="st0" d="M250 .2H0C0 .1 0 0 .1 0h249.2c.2 0 .5-.1.7.2z"/>
    <path class="st0" d="M240.7 9.6V89l-.1.1H9.9c-.1 0-.1 0-.3-.1V9.6H240.4c.1-.1.1 0 .3 0zM31.3 72.8H50c2.1 0 4.1 0 6.2-.4 3.4-.6 6.3-2 8.7-4.4 1.3-1.3 2.2-2.8 2.6-4.6.5-2.2.5-4.4.1-6.6-.7-3.3-2.3-5.9-5.4-7.5-.3-.1-.5-.3-.8-.6.3-.2.5-.4.7-.6 1.9-1.5 3.2-3.4 3.7-5.8.5-2.2.3-4.4-.3-6.5-.8-2.8-2.6-4.8-5.2-6-1.6-.7-3.3-1.2-5-1.2-2.4-.1-4.7-.1-7.1-.1H31.4c-.1 14.8-.1 29.5-.1 44.3zm72.1-29.5c.1 0 .1 0 .2-.1.1.2.3.4.4.6l4.5 7.2c4.3 6.9 8.7 13.9 13 20.8.4.6.8.9 1.5.9 2.4-.1 4.8 0 7.1-.1.2 0 .4 0 .7-.1.1-14.7.1-29.4 0-44.1-.9-.2-8.4-.2-8.9 0V56.9h-.1c-6-9.6-12-19.1-18-28.7h-8.9v17.9c0 .7.1 1.3.4 1.9 1.2 3.1 2.3 6.2 3.5 9.3 1.4 3.8 2.9 7.6 4.3 11.4.1.2.1.5.5.7-.2-8.4-.2-17.2-.2-26.1zm-.7 29.6c-.1-.4-.2-.7-.3-.9-5.3-14.2-10.6-28.5-16-42.7-.3-.8-.3-.8-1.1-.8H77c-.9 0-.9 0-1.2.8-1.9 5-3.7 9.9-5.6 14.9l-2.7 7.2c-.2.4-.3.8 0 1.2 1.6 2.8 2.1 5.8 1.8 9-.2 3.3-1.7 6-4.2 8.1-1.4 1.1-2.9 2.1-4.6 2.8-.2.1-.5.1-.6.4h9.2c1.2-3.3 2.3-6.6 3.5-9.8h16.7c1.1 3.3 2.2 6.5 3.4 9.8h10zm94.4-36.3v36c1.1.2 8.5.1 9.1-.1v-3.9-31c0-.4 0-.7.1-1.2h13.5c.2-1.6.2-7.1-.1-7.9h-35.9v8c4.4.1 8.8.1 13.3.1zm-64.1 36c.4 0 .7.1 1 .1h8.1c1.7 0 3.4-.1 5.1-.5 5.3-1.1 9.3-4 11.9-8.9 1.7-3.3 2.6-6.9 2.8-10.6.2-3.5-.2-7-1-10.4-.9-3.7-2.7-6.8-5.5-9.4-3.2-2.9-7-4.2-11.3-4.4-3.5-.1-6.9-.1-10.4-.1-.2 0-.4 0-.6.1-.2 1.8-.1 6.9.2 7.6 1.3 0 2.7 0 4.1.1 2.1 0 4.3-.1 6.4.3 2.6.4 4.8 1.5 6.5 3.5 1.2 1.5 1.9 3.2 2.2 5 .5 2.7.5 5.5.4 8.3-.1 1.2-.3 2.4-.5 3.5-.9 3.6-3.1 6.1-6.7 7.3-1.5.5-3 .8-4.6.8h-8c-.1 2.7-.1 5.1-.1 7.7zm33.3-44.1l-1.5.3c-1.9.6-3.1 2-3.9 3.7-.4.7-.4 1.5 0 2.2.3.6.6 1.1 1 1.6 2.4 3.1 4.8 6.2 7.1 9.4 3.3 4.3 6.8 8.5 10.4 12.6 3.2 3.7 6.1 7.7 8.8 11.8.4.6.6 1.2.7 1.9.1.6.2.7.8.9.5.1.9 0 1.3-.3.6-.5 1.2-1 1.9-1.5.4-.3.4-.7.4-1.2-.1-.5-.4-.9-.9-1.1-.6-.2-.9-.6-1.2-1.1-.2-.3-.4-.5-.5-.8-2.3-3.5-4.6-6.9-6.6-10.5-2.5-4.5-5-9-7.5-13.4-2.2-3.9-4.6-7.7-6.9-11.5-.4-.6-.8-1.2-1.2-1.7-.6-.9-1.3-1.3-2.2-1.3z"/>
    <path d="M249.1 0H0v97.8h250V0h-.9zm-8.4 88.2l-.1.1H9.9c-.1 0-.2-.1-.3-.1V9.3H240.4c.1 0 .1.1.3.1v78.8z"/>
    <path d="M67.5 56.1c-.7-3.3-2.3-5.9-5.4-7.5-.2-.2-.5-.4-.8-.6.3-.3.5-.4.7-.6 1.9-1.5 3.2-3.4 3.7-5.8.5-2.2.4-4.4-.3-6.5-.8-2.8-2.6-4.8-5.2-6-1.6-.7-3.3-1.1-5-1.2-2.4.1-4.7.1-7.1.1H31.3v44h18.6c2.1 0 4.1-.1 6.2-.4 3.3-.6 6.3-2 8.7-4.4 1.3-1.3 2.2-2.8 2.6-4.6.5-2.1.6-4.3.1-6.5zM40.1 35.8c.3-.1.5-.1.7-.1h9.9c1 0 1.9.1 2.9.3 2 .3 3.1 1.4 3.4 3.4.1 1 .1 2-.1 3-.5 2.1-2.2 3.6-4.4 3.6h-12c-.1 0-.2-.1-.4-.1V35.8zm18.7 24.3c-.5 2.3-2.2 3.9-4.7 4.1-1.3.2-2.7.2-4.1.2H40.1V52.7c.2-.1.4-.1.6-.1h12.8c1.4 0 2.6.5 3.7 1.4 1 .8 1.6 1.8 1.7 3.1.1.9.1 2-.1 3z"/>
    <path d="M130.6 28.3c-.8-.2-8.4-.2-8.9 0v28.3h-.1c-6-9.5-12-19.1-18-28.5h-8.9V45.9c0 .7.2 1.3.4 1.9 1.2 3.1 2.3 6.2 3.5 9.2 1.4 3.8 2.9 7.6 4.3 11.3.1.3.1.6.5.7V43c.1.2.3.4.4.6l4.5 7.2c4.3 6.9 8.7 13.8 13 20.7.3.6.7.9 1.5.9 2.3-.1 4.7-.1 7.1-.1.2 0 .4-.1.7-.1.1-14.8.1-29.3 0-43.9z"/>
    <path d="M102.3 71.2c-5.4-14.1-10.7-28.3-16-42.4-.3-.8-.3-.8-1.1-.8h-8.3c-.9 0-.9 0-1.2.8-1.9 5-3.7 9.8-5.6 14.8l-2.7 7.2c-.1.4-.2.8 0 1.2 1.6 2.8 2 5.8 1.8 8.9-.2 3.3-1.6 6-4.2 8.1-1.4 1.1-2.9 2.1-4.6 2.8-.2.1-.5.1-.6.4H69c1.2-3.3 2.3-6.5 3.5-9.7h16.7c1.2 3.2 2.3 6.5 3.4 9.7h10.1c-.1-.5-.2-.7-.4-1zm-27-16.1c0-.6 5.3-15.5 5.8-16.2 1.9 5.4 3.7 10.7 5.6 16.1-.6.1-10.3.2-11.4.1z"/>
    <path d="M183.8 28.1v8h13.3V72c1.1.1 8.5.1 9.1-.1V68 37.2c0-.4.1-.8.1-1.2h6.8c2.2 0 4.5.1 6.7 0 .2-1.6.2-7.1-.1-7.9h-35.9z"/>
    <path d="M155.3 32.6c-3.2-2.9-7-4.3-11.3-4.4-3.4-.1-6.9-.1-10.4-.1-.2 0-.4.1-.6.1-.2 1.8-.1 6.9.2 7.6 1.4.1 2.7.1 4.1.1 2.1 0 4.3-.1 6.4.3 2.6.4 4.8 1.4 6.5 3.5 1.1 1.5 1.8 3.2 2.2 5 .6 2.8.6 5.5.4 8.2 0 1.1-.2 2.3-.5 3.5-.9 3.6-3.1 6.1-6.7 7.3-1.5.5-3 .8-4.6.8h-8V72c.4 0 .7 0 .9.3h8.1c1.7 0 3.4-.2 5.1-.5 5.4-1.1 9.4-4 11.9-8.8 1.7-3.3 2.6-6.9 2.8-10.5.2-3.5-.1-7-1-10.3-.9-4-2.7-7.1-5.5-9.6z"/>
    <path d="M192.3 67.9c-.5-.2-.9-.6-1.2-1.1-.1-.3-.3-.5-.5-.8-2.3-3.4-4.6-6.9-6.6-10.4-2.5-4.5-4.9-8.9-7.5-13.3-2.3-3.8-4.6-7.7-6.9-11.4-.4-.6-.8-1.1-1.2-1.7-.5-.7-1.2-1.1-2.1-1.1-.5.1-1 .2-1.6.1-1.9.6-3.1 2-3.9 3.7-.4.7-.4 1.5 0 2.2.3.6.6 1.1 1 1.6 2.3 3.2 4.7 6.3 7.1 9.3 3.3 4.3 6.8 8.4 10.4 12.5 3.2 3.7 6.1 7.7 8.8 11.7.3.6.6 1.2.7 1.9.1.6.3.8.8.9.5.1.9 0 1.3-.3.7-.5 1.3-1 1.9-1.5.4-.4.5-.8.4-1.2-.1-.5-.4-.9-.9-1.1z"/>
    <path class="st0" d="M40.1 65.1V53.3c.2 0 .4-.1.6-.1h12.8c1.4 0 2.6.5 3.7 1.4 1 .8 1.5 1.8 1.7 3.1.1 1.1.1 2.1-.1 3.1-.5 2.3-2.2 3.8-4.7 4.1-1.4.1-2.7.2-4.1.2h-9.2c-.2.1-.4.1-.7 0z"/>
    <path class="st0" d="M40.1 46.4V36.1c.2 0 .4-.1.7-.1h9.9c1 0 1.9.1 2.9.3 2 .3 3.1 1.4 3.4 3.4.2 1 .2 2-.1 3-.5 2.1-2.2 3.6-4.4 3.6-4 .1-8 0-12 0-.1.1-.2.1-.4.1z"/>
    <path class="st0" d="M86.7 55.7c-.6.2-10.3.2-11.4.1 0-.6 5.3-15.6 5.8-16.3 1.9 5.4 3.7 10.8 5.6 16.2z"/>
</svg>
