<svg xmlns="http://www.w3.org/2000/svg" viewBox="0 0 58 62">
    <path d="M24.7 32c-.6-.5-1.1-1.1-1.7-1.6-.9-.8-1.7-1.7-2.6-2.5-.6-.6-1.2-1.2-1.9-1.8-.5-.5-1.1-1-1.6-1.5s-1.1-1-1.6-1.5c-1.2-1.1-2.4-2.3-3.6-3.4-.5-.5-1.1-1-1.6-1.5-.7-.6-1.3-1.3-2-1.9-.6-.6-1.2-1.1-1.8-1.7-.3-.3-.7-.6-1-.9-.5-.4-.8-1-1.1-1.6-.4-.8-.2-1.4.3-2 .5-.6 1-1.1 1.4-1.8.5-.7 1.2-1.2 1.9-1.6.7-.4 1.4-.4 2.1 0 .4.2.7.5 1 .7.8.7 1.7 1.5 2.5 2.3 5.2 5.2 10.4 10.4 15.6 15.7.1.1.1.2.2.3l1.8-1.8c1.4-1.5 2.9-2.9 4.3-4.3 2.1-2.1 4.1-4.2 6.1-6.2.5-.5 1-1.1 1.6-1.6l3.7-3.7c.5-.4 1-.8 1.5-1.1.6-.3 1.2-.3 1.9-.1.9.4 1.6 1 2.2 1.8.4.5.9 1.1 1.3 1.6.3.4.5.8.5 1.2 0 .3-.1.6-.2.9-.3.5-.5.9-.9 1.4-.1.2-.4.3-.6.5l-1.5 1.5c-.8.7-1.6 1.5-2.4 2.2-.8.7-1.5 1.5-2.3 2.2-.6.5-1.1 1-1.7 1.6-.8.8-1.7 1.6-2.5 2.4-.7.7-1.5 1.4-2.3 2.1-.7.7-1.4 1.3-2.1 2-.9.9-1.8 1.8-2.7 2.6-.3.3-.7.7-1.1 1-.2.2-.1.4 0 .5.4.6.9 1.2 1.3 1.8.3.3.5.7.8 1 .5.7 1 1.4 1.5 2 .3.4.7.8 1 1.2.2.2.4.5.6.7.1.1.2.1.3.2.8.9 1.6 1.7 2.4 2.6l1.2 1.2c.4.4.8.9 1.3 1.4l4.4 4.4c.2.2.4.3.5.5.3.4.6.3 1 .2 1-.2 1.9-.3 2.7.5.6.6.8 1.4.4 2.3-.3.8-.8 1.5-1.5 2.1-.4.3-.9.5-1.4.6-.5.1-1.1.2-1.6.1-.7-.1-1.4-.3-1.7-1.3-.2-.7-.1-1.5.2-2.2l-4.3-4.3c-1-1-2-2-3-3.1-.7-.7-1.3-1.4-2-2.1-.8-.7-1.6-1.5-2.4-2.2-.7-.6-1.3-1.1-2-1.6-.6-.5-1.3-1-2-1.5-.4-.3-.8-.6-1.1-.9-.3-.3-.6-.5-1-.8h-.2c-.5.4-1 .8-1.4 1.1-.5.4-1 .7-1.5 1.1-.4.3-.7.6-1.1.9-.6.5-1.3.9-1.9 1.4-.2.2-.4.3-.6.5-.4.3-.7.6-1 .9-3.1 3.1-6.2 6.1-9.3 9.2-.4.4-.7.8-1.1 1.2-.1.1-.1.2-.1.3.2.6.3 1.2.2 1.8-.1.5-.7 1.2-1.1 1.3-.3.1-.6.2-.9.2-.3 0-.6 0-.9-.1-.6-.2-1.2-.3-1.7-.6-.9-.4-1.5-1.1-1.8-1.9-.2-.6-.3-1.2-.1-1.8.2-.8 1.1-1.3 1.9-1.3.6 0 1.2 0 1.7.2.1 0 .3-.1.5-.2l4.4-4.4c1-1.1 2.1-2.1 3.1-3.2.3-.3.5-.6.8-.9.1-.2.3-.3.5-.4.2-.2.3-.3.4-.5.3-.4.7-.7 1-1 .4-.4.7-.9 1.1-1.4.3-.4.7-.8 1-1.2l.9-1.2c.3-.4.7-.9 1-1.3.3-.4.5-.8.8-1.2.2-.3.5-.5.7-.7z"/>
    <path d="M23.4 13.8h1c.2 0 .3-.1.3-.3v-1.4V4 2.9c0-.2-.1-.3-.3-.3h-.8c-.1 0-.2-.1-.2-.2V.1h8.5c.2 0 .4.1.5.2.8.7 1.5 1.5 2.3 2.2.2.1.3.3.3.4v3.2c0 .2-.1.4-.2.5-.4.4-.8.6-1.2.9-.3.2-.3.3 0 .6l1.3 1.3c0 .1.1.2.1.3v3.7c0 .1-.1.3-.2.4-.8.8-1.6 1.5-2.4 2.3-.1.1-.3.2-.4.2h-8.3c-.2 0-.3 0-.3-.2v-2.3zm6 0H31c.1 0 .2 0 .3-.1.3-.2.5-.4.7-.6.2-.2.3-.4.3-.6v-2.4c0-.1-.1-.2-.1-.3-.2-.2-.4-.4-.6-.5-.1-.2-.3-.3-.4-.3h-3.4c-.3 0-.4.1-.4.4v4c0 .3.1.4.4.4h1.6zm.1-11.3h-1.7c-.2 0-.3 0-.3.3v3.7c0 .1 0 .3.2.3 1.1 0 2.2 0 3.2.1.7.1 1-.4 1.4-.8.1-.1.1-.2.1-.3 0-.5-.1-1 0-1.4.1-.7-.2-1.1-.6-1.5-.2-.2-.4-.3-.6-.3-.7 0-1.2-.1-1.7-.1z"/>
    <path d="M4.1 29.1v7.7h1.3v2.3c0 .1-.1.2-.2.2H.5.4v-2.5h.9c.3 0 .3-.1.3-.4v-7.3-2.5c0-.3-.1-.5-.4-.4H.4v-2.5h3.2c.3 0 .5.1.6.4 1.1 2.1 2.2 4.1 3.3 6.2l1.8 3.3.3.3c.1-.9.1-1.7.1-2.5v-2.6-2.6H8.5v-2.5h4.9V26c0 .1-.1.2-.2.2h-.7c-.1 0-.2.1-.2.2v12.4c0 .5 0 .5-.5.5s-1.1-.1-1.6 0-.6-.3-.7-.5c-.5-.8-.9-1.6-1.4-2.5-.9-1.7-1.9-3.5-2.8-5.2-.3-.6-.5-1.1-.8-1.6-.1-.1-.2-.3-.3-.4h-.1z"/>
    <path d="M45.8 39.7V37H47c.3 0 .4-.1.4-.3v-.2c0-3.1-.1-6.3-.1-9.4v-1c0-.2-.1-.3-.3-.3h-1.2v-2.6h8.7c.2 0 .3.1.5.2.8.7 1.6 1.5 2.4 2.2.2.2.3.3.3.6v10.3c0 .2-.1.4-.2.5-.8.8-1.6 1.6-2.3 2.4-.1.1-.2.2-.2.3h-9.2zM50 32v4.7c0 .2 0 .4.3.4h3.1c.7 0 1.3-.7 1.3-1.4V27c0-.3-.7-1.1-1-1.1h-3.6c-.1 0-.2.1-.2.2v1.3c.1 1.5.1 3 .1 4.6z"/>
    <path d="M36.3 49.8h-2.4c-.1 0-.2-.1-.2-.2v-1.7c0-.3-.1-.4-.4-.4h-2.5c-.3 0-.4.3-.3.5.1.3.2.5 0 .8V59.1c.3.2.7.1 1.2.1.3 0 .3.1.3.3v2.4h-5.5c-.3 0-.3-.1-.3-.3v-2c0-.2 0-.3.3-.3h1.2v-1.7-8.4-1.3c0-.2-.1-.3-.3-.3H25c-.2 0-.2.1-.2.3v2h-2.4c-.2 0-.2-.1-.2-.2v-4.5c0-.2.1-.3.3-.3h13.6c.2 0 .3 0 .3.2v4.6c-.1 0-.1 0-.1.1z"/>
</svg>
