<svg xmlns="http://www.w3.org/2000/svg" fill="rgb(248,24,36)" viewBox="0 0 50 50"><path d="M48 11.8c0-0.2 0-0.4-0.1-0.6 -0.2-0.4-0.5-0.6-0.9-0.7L25.5 0.1c-0.3-0.2-0.8-0.2-1.1 0L2.7 10.6C2.3 10.8 2 11.3 2 11.7v0c0 0 0 0 0 0v26.4c0 0.5 0.3 0.9 0.7 1.1l21.7 10.5c0 0 0 0 0 0 0 0 0.1 0 0.1 0 0 0 0 0 0 0 0 0 0.1 0 0.1 0 0 0 0 0 0 0 0 0 0.1 0 0.1 0 0 0 0 0 0 0 0 0 0.1 0 0.1 0 0 0 0.1 0 0.1 0 0 0 0 0 0 0 0 0 0.1 0 0.1 0 0 0 0 0 0 0 0 0 0.1 0 0.1 0 0 0 0 0 0 0 0 0 0.1 0 0.1 0 0 0 0 0 0 0l21.8-10.6c0.4-0.2 0.7-0.7 0.7-1.1L48 11.8C48 11.8 48 11.8 48 11.8zM25 2.7l18.8 9.1 -6.9 3.4L18 6 25 2.7zM25 20.9L6.1 11.8l9-4.4L34 16.6 25 20.9zM4.5 13.8l19.2 9.3v23.6L4.5 37.4V13.8zM26.2 46.7V23.1l9-4.4v6.2c0 0.7 0.6 1.3 1.3 1.3 0.7 0 1.3-0.6 1.3-1.3v-7.4l7.7-3.7v23.6L26.2 46.7z"/></svg>
