<svg xmlns="http://www.w3.org/2000/svg" fill="rgb(248,24,36)" viewBox="0 0 50 50"><path d="M44.8 8.6L29.5 0.3C28-0.4 26 0.2 25.3 1.6l-8.9 16.6H5.5c-1.4 0-2.5 1.1-2.5 2.5V25v22.5C3 48.9 4.1 50 5.5 50h34.7c1.4 0 2.5-1.1 2.5-2.5v-6.3h1c0.5 0 1-0.4 1-1v-7.2c0-0.5-0.4-1-1-1h-1v-7.1c0-1.1-0.8-2.2-1.9-2.4l5.3-9.8C46.8 11.3 46.3 9.5 44.8 8.6zM33.9 4.9l-9.5 17.7h-2.7L31.8 3.8 33.9 4.9zM27 2.5C27.3 2 28 1.7 28.6 2l1.5 0.8L19.5 22.6h-3.3L27 2.5zM4.9 20.6c0-0.2 0.2-0.5 0.5-0.5h9.8l-1.3 2.4H5.4c-0.2 0-0.4 0-0.5 0.1L4.9 20.6zM40.6 47.5c0 0.3-0.2 0.5-0.5 0.5H5.4c-0.3 0-0.5-0.2-0.5-0.5V25.1c0-0.3 0.2-0.5 0.5-0.5h9.1 3.9 7.1H39h1c0.3 0 0.5 0.2 0.5 0.5v7.1h-3.7l0 0c-1.6 0-2.9 1.3-2.9 2.9v3.3c0 1.6 1.3 2.9 2.9 2.9h3.7L40.6 47.5 40.6 47.5zM42.6 34.1L42.6 34.1l0.1 5.2h-0.1 -5.7c-0.5 0-1-0.4-1-1V35c0-0.5 0.4-1 1-1H42.6zM44.3 11.9l-5.8 10.7H26.5l9-16.7 8.2 4.5C44.4 10.6 44.6 11.3 44.3 11.9z"/><path d="M41.6 11l-0.5-0.2c-1.2-0.7-2.8-0.2-3.5 1L37 12.9c-0.3 0.6-0.4 1.3-0.2 2 0.2 0.7 0.7 1.2 1.3 1.5l0.5 0.2c0.4 0.2 0.8 0.3 1.2 0.3 1 0 1.8-0.5 2.3-1.3l0.6-1.1C43.3 13.2 42.8 11.6 41.6 11zM40.9 13.6l-0.6 1.1c-0.2 0.3-0.6 0.4-0.9 0.2l-0.5-0.3c-0.1-0.1-0.2-0.2-0.3-0.4 -0.1-0.2-0.1-0.4 0.1-0.5l0.6-1.1c0.1-0.2 0.4-0.4 0.6-0.4 0.1 0 0.2 0 0.3 0.1l0.5 0.2C40.9 12.8 41 13.2 40.9 13.6z"/></svg>
