<svg xmlns="http://www.w3.org/2000/svg" fill="rgb(248,24,36)" viewBox="0 0 50 50"><path d="M27.6 0c-0.9 0-1.7 0.1-2.6 0.2C24.1 0.1 23.2 0 22.4 0 16 0 10.3 3.1 6.3 8c0 0-0.1 0.1-0.1 0.1 -1.3 1.6-2.4 3.4-3.3 5.3 0 0 0 0.1-0.1 0.1 -0.6 1.3-1.1 2.8-1.5 4.2 0 0.1-0.1 0.2-0.1 0.3 -0.6 2.2-0.9 4.6-0.9 7 0 3.8 0.8 7.4 2.1 10.6 0 0 0 0.1 0 0.1 0.8 1.9 1.8 3.7 3 5.3 0 0 0.1 0.1 0.1 0.1 1.2 1.6 2.6 3 4.1 4.3 0 0 0.1 0.1 0.1 0.1 3.6 2.8 7.9 4.5 12.5 4.5 0.8 0 1.7-0.1 2.6-0.2 0.9 0.1 1.7 0.2 2.6 0.2 12.1 0 22-11.2 22-25S39.7 0 27.6 0zM18.5 2.3c-0.3 0.1-0.6 0.3-0.8 0.5 -0.2 0.1-0.3 0.2-0.5 0.3 -0.2 0.1-0.5 0.3-0.7 0.5h-1.7c1.3-0.6 2.6-1.1 3.9-1.3C18.6 2.2 18.5 2.2 18.5 2.3zM9.8 39.7H6.7c-0.8-1.1-1.4-2.2-2-3.4h3.3c0.1 0.3 0.3 0.6 0.4 0.9 0.1 0.1 0.1 0.3 0.2 0.4 0.2 0.3 0.4 0.7 0.6 1 0.1 0.1 0.1 0.3 0.2 0.4C9.4 39.2 9.6 39.4 9.8 39.7zM4.3 14.7h3.3c-0.2 0.4-0.3 0.8-0.4 1.1C7.1 15.9 7 16 7 16.1c-0.1 0.4-0.2 0.7-0.3 1.1H3.3C3.6 16.4 3.9 15.5 4.3 14.7zM2.1 25c0-0.6 0-1.2 0.1-1.7h3.4c0 0 0 0 0 0 0 0.6-0.1 1.1-0.1 1.7 0 0.3 0 0.6 0 0.9H2.2C2.1 25.6 2.1 25.3 2.1 25zM5.7 27.6c0 0.4 0.1 0.7 0.1 1.1 0 0 0 0.1 0 0.1 0.1 0.5 0.1 1 0.2 1.4H2.6c-0.2-0.8-0.3-1.7-0.4-2.6H5.7zM6.2 19c0 0.1 0 0.2-0.1 0.3 0 0.1 0 0.2-0.1 0.3 -0.1 0.5-0.2 1.1-0.3 1.6 0 0 0 0.1 0 0.1 0 0.1 0 0.1 0 0.2H2.4c0.1-0.9 0.3-1.7 0.5-2.6H6.2zM6.4 31.9c0 0.1 0.1 0.2 0.1 0.3 0 0 0 0.1 0 0.1 0.1 0.5 0.3 1 0.5 1.6 0 0.1 0.1 0.2 0.1 0.3 0 0.1 0.1 0.2 0.1 0.3H3.9c-0.3-0.8-0.6-1.7-0.8-2.6H6.4zM9.3 11.1c-0.1 0.1-0.1 0.3-0.2 0.4 -0.2 0.3-0.4 0.7-0.6 1 -0.1 0.1-0.1 0.3-0.2 0.4 0 0 0 0 0 0H5.1c0.7-1.2 1.4-2.4 2.2-3.4h3c-0.1 0.2-0.2 0.3-0.3 0.5C9.8 10.3 9.5 10.7 9.3 11.1zM11.8 5.2h2.4c-0.2 0.2-0.4 0.4-0.6 0.6 -0.2 0.2-0.3 0.3-0.5 0.5 -0.2 0.2-0.3 0.3-0.5 0.5 -0.2 0.2-0.3 0.3-0.5 0.5 -0.1 0.2-0.3 0.3-0.4 0.5H8.8C9.7 6.8 10.7 5.9 11.8 5.2zM8 41.4h3c0.1 0.1 0.2 0.3 0.3 0.4 0.3 0.3 0.5 0.6 0.8 1 0.2 0.2 0.3 0.3 0.5 0.5 0.2 0.2 0.3 0.4 0.5 0.5 0.1 0.1 0.1 0.1 0.2 0.2h-2.6C9.7 43.2 8.8 42.3 8 41.4zM18.7 47.9c-2-0.4-3.8-1.2-5.6-2.2h2.1c0.1 0.1 0.2 0.2 0.3 0.2 0.2 0.1 0.4 0.3 0.5 0.4 0.3 0.2 0.7 0.5 1 0.7 0.2 0.1 0.3 0.2 0.5 0.3 0.3 0.2 0.6 0.3 0.8 0.5C18.5 47.8 18.6 47.8 18.7 47.9zM27.6 48.3c-0.7 0-1.4 0-2-0.1l-0.3 0c0 0-0.1 0-0.1 0 -0.3 0-0.6-0.1-0.9-0.1 0 0 0 0-0.1 0 -0.3-0.1-0.6-0.1-0.8-0.2 0 0-0.1 0-0.1 0 -0.3-0.1-0.5-0.1-0.8-0.2 -0.1 0-0.2-0.1-0.2-0.1 -0.2-0.1-0.4-0.1-0.7-0.2 -0.2-0.1-0.3-0.1-0.5-0.2 -0.1 0-0.2-0.1-0.4-0.1 -4.6-2-8.5-5.8-10.8-10.7 0 0 0-0.1-0.1-0.1 -0.1-0.3-0.2-0.5-0.4-0.8 0-0.1-0.1-0.2-0.1-0.3 -0.1-0.2-0.2-0.4-0.3-0.6 -0.1-0.1-0.1-0.3-0.2-0.4 -0.1-0.2-0.1-0.4-0.2-0.6 -0.1-0.2-0.1-0.3-0.1-0.5 -0.1-0.2-0.1-0.4-0.2-0.5 0-0.2-0.1-0.3-0.1-0.5 0-0.2-0.1-0.4-0.1-0.5 0-0.2-0.1-0.3-0.1-0.5 0-0.2-0.1-0.4-0.1-0.6 0-0.2-0.1-0.4-0.1-0.5 0-0.2-0.1-0.4-0.1-0.6 0-0.2-0.1-0.3-0.1-0.5 0-0.2 0-0.4-0.1-0.6 0-0.2 0-0.3 0-0.5 0-0.2 0-0.5 0-0.7 0-0.1 0-0.3 0-0.4 0-0.4 0-0.8 0-1.1s0-0.8 0-1.1c0-0.1 0-0.3 0-0.4 0-0.2 0-0.5 0-0.7 0-0.2 0-0.3 0-0.5 0-0.2 0-0.4 0.1-0.6 0-0.2 0-0.3 0.1-0.5 0-0.2 0.1-0.4 0.1-0.6 0-0.2 0.1-0.4 0.1-0.5 0-0.2 0.1-0.4 0.1-0.6 0-0.2 0.1-0.3 0.1-0.5 0-0.2 0.1-0.4 0.1-0.5 0-0.2 0.1-0.3 0.1-0.5 0.1-0.2 0.1-0.4 0.2-0.5 0-0.2 0.1-0.3 0.1-0.5 0.1-0.2 0.1-0.4 0.2-0.6 0-0.1 0.1-0.3 0.2-0.4 0.1-0.2 0.2-0.4 0.3-0.6 0-0.1 0.1-0.2 0.1-0.3 0.1-0.3 0.2-0.5 0.4-0.8 0 0 0-0.1 0.1-0.1C12.1 9 15.9 5.1 20.6 3.1c0.1 0 0.2-0.1 0.4-0.1 0.2-0.1 0.3-0.1 0.5-0.2 0.2-0.1 0.4-0.1 0.7-0.2 0.1 0 0.2-0.1 0.2-0.1 0.3-0.1 0.5-0.2 0.8-0.2 0 0 0.1 0 0.1 0 0.3-0.1 0.6-0.1 0.8-0.2 0 0 0 0 0.1 0 0.3-0.1 0.6-0.1 0.9-0.1 0 0 0.1 0 0.1 0l0.3 0c0.7-0.1 1.3-0.1 2-0.1 11.2 0 20.3 10.4 20.3 23.3S38.7 48.3 27.6 48.3z"/><path d="M24.9 23.1v-9.2h3.8c4 0 5.7 1.6 5.7 6 0 3.7-1.8 5.8-5.1 5.8h-1.4v2h2.9v2.6h-2.9V34h-3v-3.6h-1.7v-2.6h1.7v-2h-1.7v-2.6H24.9zM28.5 23.1c2.2 0 2.9-1 2.9-3.4 0-2.1-0.7-3.2-2.6-3.2 -0.3 0-0.6 0-0.9 0.1v6.5C28.1 23.1 28.3 23.1 28.5 23.1z"/></svg>
