<svg xmlns="http://www.w3.org/2000/svg" viewBox="0 0 58 62"><path d="M24.7 32c-0.6-0.5-1.1-1.1-1.7-1.6 -0.9-0.8-1.7-1.7-2.6-2.5 -0.6-0.6-1.2-1.2-1.9-1.8 -0.5-0.5-1.1-1-1.6-1.5 -0.5-0.5-1.1-1-1.6-1.5 -1.2-1.1-2.4-2.3-3.6-3.4 -0.5-0.5-1.1-1-1.6-1.5 -0.7-0.6-1.3-1.3-2-1.9 -0.6-0.6-1.2-1.1-1.8-1.7 -0.3-0.3-0.7-0.6-1-0.9 -0.5-0.4-0.8-1-1.1-1.6 -0.4-0.8-0.2-1.4 0.3-2C5 9.5 5.5 9 5.9 8.3c0.5-0.7 1.2-1.2 1.9-1.6 0.7-0.4 1.4-0.4 2.1 0 0.4 0.2 0.7 0.5 1 0.7 0.8 0.7 1.7 1.5 2.5 2.3 5.2 5.2 10.4 10.4 15.6 15.7 0.1 0.1 0.1 0.2 0.2 0.3 0.6-0.6 1.2-1.2 1.8-1.8 1.4-1.5 2.9-2.9 4.3-4.3 2.1-2.1 4.1-4.2 6.1-6.2 0.5-0.5 1-1.1 1.6-1.6 1.2-1.2 2.5-2.5 3.7-3.7 0.5-0.4 1-0.8 1.5-1.1 0.6-0.3 1.2-0.3 1.9-0.1 0.9 0.4 1.6 1 2.2 1.8 0.4 0.5 0.9 1.1 1.3 1.6 0.3 0.4 0.5 0.8 0.5 1.2 0 0.3-0.1 0.6-0.2 0.9 -0.3 0.5-0.5 0.9-0.9 1.4 -0.1 0.2-0.4 0.3-0.6 0.5 -0.5 0.5-1 1-1.5 1.5 -0.8 0.7-1.6 1.5-2.4 2.2 -0.8 0.7-1.5 1.5-2.3 2.2 -0.6 0.5-1.1 1-1.7 1.6 -0.8 0.8-1.7 1.6-2.5 2.4 -0.7 0.7-1.5 1.4-2.3 2.1 -0.7 0.7-1.4 1.3-2.1 2 -0.9 0.9-1.8 1.8-2.7 2.6 -0.3 0.3-0.7 0.7-1.1 1 -0.2 0.2-0.1 0.4 0 0.5 0.4 0.6 0.9 1.2 1.3 1.8 0.3 0.3 0.5 0.7 0.8 1 0.5 0.7 1 1.4 1.5 2 0.3 0.4 0.7 0.8 1 1.2 0.2 0.2 0.4 0.5 0.6 0.7 0.1 0.1 0.2 0.1 0.3 0.2 0.8 0.9 1.6 1.7 2.4 2.6 0.4 0.4 0.8 0.8 1.2 1.2 0.4 0.4 0.8 0.9 1.3 1.4 1.5 1.5 2.9 2.9 4.4 4.4 0.2 0.2 0.4 0.3 0.5 0.5 0.3 0.4 0.6 0.3 1 0.2 1-0.2 1.9-0.3 2.7 0.5 0.6 0.6 0.8 1.4 0.4 2.3 -0.3 0.8-0.8 1.5-1.5 2.1 -0.4 0.3-0.9 0.5-1.4 0.6 -0.5 0.1-1.1 0.2-1.6 0.1 -0.7-0.1-1.4-0.3-1.7-1.3 -0.2-0.7-0.1-1.5 0.2-2.2 -1.4-1.4-2.9-2.9-4.3-4.3 -1-1-2-2-3-3.1 -0.7-0.7-1.3-1.4-2-2.1 -0.8-0.7-1.6-1.5-2.4-2.2 -0.7-0.6-1.3-1.1-2-1.6 -0.6-0.5-1.3-1-2-1.5 -0.4-0.3-0.8-0.6-1.1-0.9 -0.3-0.3-0.6-0.5-1-0.8 0 0-0.2 0-0.2 0 -0.5 0.4-1 0.8-1.4 1.1 -0.5 0.4-1 0.7-1.5 1.1 -0.4 0.3-0.7 0.6-1.1 0.9 -0.6 0.5-1.3 0.9-1.9 1.4 -0.2 0.2-0.4 0.3-0.6 0.5 -0.4 0.3-0.7 0.6-1 0.9 -3.1 3.1-6.2 6.1-9.3 9.2 -0.4 0.4-0.7 0.8-1.1 1.2 -0.1 0.1-0.1 0.2-0.1 0.3 0.2 0.6 0.3 1.2 0.2 1.8 -0.1 0.5-0.7 1.2-1.1 1.3 -0.3 0.1-0.6 0.2-0.9 0.2 -0.3 0-0.6 0-0.9-0.1 -0.6-0.2-1.2-0.3-1.7-0.6C5.9 54 5.3 53.3 5 52.5c-0.2-0.6-0.3-1.2-0.1-1.8 0.2-0.8 1.1-1.3 1.9-1.3 0.6 0 1.2 0 1.7 0.2 0.1 0 0.3-0.1 0.5-0.2 1.5-1.5 3-3 4.4-4.4 1-1.1 2.1-2.1 3.1-3.2 0.3-0.3 0.5-0.6 0.8-0.9 0.1-0.2 0.3-0.3 0.5-0.4 0.2-0.2 0.3-0.3 0.4-0.5 0.3-0.4 0.7-0.7 1-1 0.4-0.4 0.7-0.9 1.1-1.4 0.3-0.4 0.7-0.8 1-1.2 0.3-0.4 0.6-0.8 0.9-1.2 0.3-0.4 0.7-0.9 1-1.3 0.3-0.4 0.5-0.8 0.8-1.2C24.2 32.4 24.5 32.2 24.7 32z"/><path d="M23.4 13.8c0.4 0 0.7 0 1 0 0.2 0 0.3-0.1 0.3-0.3 0-0.5 0-0.9 0-1.4 0-2.7 0-5.4 0-8.1 0-0.4 0-0.8 0-1.1 0-0.2-0.1-0.3-0.3-0.3 -0.3 0-0.5 0-0.8 0 -0.1 0-0.2-0.1-0.2-0.2 0-0.8 0-1.5 0-2.3 0.1 0 0.2 0 0.2 0 2.8 0 5.5 0 8.3 0 0.2 0 0.4 0.1 0.5 0.2 0.8 0.7 1.5 1.5 2.3 2.2C34.9 2.6 35 2.8 35 2.9c0 1.1 0 2.2 0 3.2 0 0.2-0.1 0.4-0.2 0.5C34.4 7 34 7.2 33.6 7.5c-0.3 0.2-0.3 0.3 0 0.6 0.4 0.4 0.8 0.8 1.3 1.3C34.9 9.5 35 9.6 35 9.7c0 1.2 0 2.5 0 3.7 0 0.1-0.1 0.3-0.2 0.4 -0.8 0.8-1.6 1.5-2.4 2.3 -0.1 0.1-0.3 0.2-0.4 0.2 -2.8 0-5.5 0-8.3 0 -0.2 0-0.3 0-0.3-0.2C23.4 15.3 23.4 14.6 23.4 13.8zM29.4 13.8c0.5 0 1.1 0 1.6 0 0.1 0 0.2 0 0.3-0.1 0.3-0.2 0.5-0.4 0.7-0.6 0.2-0.2 0.3-0.4 0.3-0.6 0-0.8 0-1.6 0-2.4 0-0.1-0.1-0.2-0.1-0.3 -0.2-0.2-0.4-0.4-0.6-0.5C31.5 9.1 31.3 9 31.2 9c-1.1 0-2.3 0-3.4 0 -0.3 0-0.4 0.1-0.4 0.4 0 0.3 0 0.7 0 1 0 1 0 2 0 3 0 0.3 0.1 0.4 0.4 0.4C28.4 13.8 28.9 13.8 29.4 13.8zM29.5 2.5c-0.6 0-1.1 0-1.7 0 -0.2 0-0.3 0-0.3 0.3 0 0.6 0 1.1 0 1.7 0 0.7 0 1.3 0 2 0 0.1 0 0.3 0.2 0.3 1.1 0 2.2 0 3.2 0.1 0.7 0.1 1-0.4 1.4-0.8 0.1-0.1 0.1-0.2 0.1-0.3 0-0.5-0.1-1 0-1.4 0.1-0.7-0.2-1.1-0.6-1.5 -0.2-0.2-0.4-0.3-0.6-0.3C30.5 2.6 30 2.5 29.5 2.5z"/><path d="M4.1 29.1c0 2.5 0 5.1 0 7.7 0.4 0 0.8 0 1.3 0 0 0.8 0 1.6 0 2.3 0 0.1-0.1 0.2-0.2 0.2 -1.6 0-3.1 0-4.7 0 0 0 0 0-0.1 0 0-0.8 0-1.6 0-2.5 0.3 0 0.6 0 0.9 0 0.3 0 0.3-0.1 0.3-0.4 0-2.4 0-4.8 0-7.3 0-0.8 0-1.7 0-2.5 0-0.3-0.1-0.5-0.4-0.4 -0.3 0-0.5 0-0.8 0 0-0.8 0-1.6 0-2.5 0.3 0 0.5 0 0.8 0 0.8 0 1.6 0 2.4 0 0.3 0 0.5 0.1 0.6 0.4 1.1 2.1 2.2 4.1 3.3 6.2 0.6 1.1 1.2 2.2 1.8 3.3 0.1 0.1 0.2 0.2 0.3 0.3 0.1-0.9 0.1-1.7 0.1-2.5 0-0.9 0-1.7 0-2.6 0-0.8 0-1.7 0-2.6 -0.4 0-0.8 0-1.2 0 0-0.8 0-1.7 0-2.5 1.6 0 3.2 0 4.9 0 0 0.8 0 1.5 0 2.3 0 0.1-0.1 0.2-0.2 0.2 -0.2 0-0.5 0-0.7 0 -0.1 0-0.2 0.1-0.2 0.2 0 0.4 0 0.8 0 1.3 0 3.7 0 7.4 0 11.1 0 0.5 0 0.5-0.5 0.5 -0.5 0-1.1-0.1-1.6 0 -0.5 0.1-0.6-0.3-0.7-0.5C9 38 8.6 37.2 8.1 36.3c-0.9-1.7-1.9-3.5-2.8-5.2C5 30.5 4.8 30 4.5 29.5c-0.1-0.1-0.2-0.3-0.3-0.4C4.1 29.1 4.1 29.1 4.1 29.1z"/><path d="M45.8 39.7c0-0.9 0-1.8 0-2.7 0.4 0 0.8 0 1.2 0 0.3 0 0.4-0.1 0.4-0.3 0-0.1 0-0.1 0-0.2 0-3.1-0.1-6.3-0.1-9.4 0-0.3 0-0.7 0-1 0-0.2-0.1-0.3-0.3-0.3 -0.4 0-0.8 0-1.2 0 0-0.9 0-1.8 0-2.6 0.8 0 1.6 0 2.4 0 2.1 0 4.2 0 6.3 0 0.2 0 0.3 0.1 0.5 0.2 0.8 0.7 1.6 1.5 2.4 2.2 0.2 0.2 0.3 0.3 0.3 0.6 0 3.4 0 6.9 0 10.3 0 0.2-0.1 0.4-0.2 0.5 -0.8 0.8-1.6 1.6-2.3 2.4 -0.1 0.1-0.2 0.2-0.2 0.3C51.8 39.7 48.8 39.7 45.8 39.7zM50 32C50 32 50 32 50 32c0 1.6 0 3.1 0 4.7 0 0.2 0 0.4 0.3 0.4 1 0 2.1 0 3.1 0 0.7 0 1.3-0.7 1.3-1.4 0-2.9 0-5.8 0-8.7 0-0.3-0.7-1.1-1-1.1 -1.2 0-2.4 0-3.6 0 -0.1 0-0.2 0.1-0.2 0.2 0 0.4 0 0.8 0 1.3C50 28.9 50 30.4 50 32z"/><path d="M36.3 49.8c-0.8 0-1.6 0-2.4 0 -0.1 0-0.2-0.1-0.2-0.2 0-0.6 0-1.1 0-1.7 0-0.3-0.1-0.4-0.4-0.4 -0.8 0-1.6 0-2.5 0 -0.3 0-0.4 0.3-0.3 0.5 0.1 0.3 0.2 0.5 0 0.8 0 0.1 0 0.2 0 0.3 0 0.7 0 1.4 0 2.1 0 1.4 0 2.9 0 4.3 0 1.2 0 2.4 0 3.6 0.3 0.2 0.7 0.1 1.2 0.1 0.3 0 0.3 0.1 0.3 0.3 0 0.8 0 1.5 0 2.4 0 0-0.2 0-0.3 0 -1.7 0-3.5 0-5.2 0 -0.3 0-0.3-0.1-0.3-0.3 0-0.7 0-1.4 0-2 0-0.2 0-0.3 0.3-0.3 0.4 0 0.8 0 1.2 0 0-0.6 0-1.2 0-1.7 0-2.8 0-5.6 0-8.4 0-0.4 0-0.9 0-1.3 0-0.2-0.1-0.3-0.3-0.3 -0.8 0-1.6 0-2.4 0 -0.2 0-0.2 0.1-0.2 0.3 0 0.5 0 1.1 0 1.6 0 0.1 0 0.2 0 0.4 -0.4 0-0.8 0-1.2 0 -0.4 0-0.8 0-1.2 0 -0.2 0-0.2-0.1-0.2-0.2 0-1.5 0-3 0-4.5 0-0.2 0.1-0.3 0.3-0.3 2.3 0 4.5 0 6.8 0 1.6 0 3.2 0 4.8 0 0.7 0 1.4 0 2 0 0.2 0 0.3 0 0.3 0.2 0 1.5 0 3 0 4.6C36.3 49.7 36.3 49.7 36.3 49.8z"/></svg>
