<svg xmlns="http://www.w3.org/2000/svg" fill="rgb(240,240,240)" viewBox="0 0 250 98"><style type="text/css">.st0{display:none;}</style><path class="st0" d="M250 0.2c-0.3 0-0.6 0-0.9 0 -82.7 0-165.5 0-248.2 0 -0.3 0-0.6 0-0.9 0C0 0.1 0 0 0.1 0c0.2 0 0.4 0 0.6 0 82.9 0 165.8 0 248.6 0C249.5 0 249.8-0.1 250 0.2z"/><path class="st0" d="M240.7 9.6c0 26.5 0 52.9 0 79.4l-0.1 0.1c0 0 0 0-0.1 0s-0.3 0-0.4 0c-76.7 0-153.4 0-230.2 0 -0.1 0-0.1 0-0.3-0.1 0-26.5 0-52.9 0-79.4 0 0 0 0 0.1 0 0 0 0 0 0.1 0s0.2 0 0.4 0c76.7 0 153.5 0 230.2 0C240.5 9.5 240.5 9.6 240.7 9.6zM31.3 72.8c0.3 0 0.6 0 0.9 0 5.9 0 11.9 0 17.8 0 2.1 0 4.1 0 6.2-0.4 3.4-0.6 6.3-2 8.7-4.4 1.3-1.3 2.2-2.8 2.6-4.6 0.5-2.2 0.5-4.4 0.1-6.6 -0.7-3.3-2.3-5.9-5.4-7.5 -0.3-0.1-0.5-0.3-0.8-0.6 0.3-0.2 0.5-0.4 0.7-0.6 1.9-1.5 3.2-3.4 3.7-5.8 0.5-2.2 0.3-4.4-0.3-6.5 -0.8-2.8-2.6-4.8-5.2-6 -1.6-0.7-3.3-1.2-5-1.2 -2.4-0.1-4.7-0.1-7.1-0.1 -5.3 0-10.6 0-16 0 -0.3 0-0.5 0-0.8 0C31.3 43.3 31.3 58 31.3 72.8zM103.4 43.3c0.1 0 0.1 0 0.2-0.1 0.1 0.2 0.3 0.4 0.4 0.6 1.5 2.4 3 4.8 4.5 7.2 4.3 6.9 8.7 13.9 13 20.8 0.4 0.6 0.8 0.9 1.5 0.9 2.4-0.1 4.8 0 7.1-0.1 0.2 0 0.4 0 0.7-0.1 0.1-14.7 0.1-29.4 0-44.1 -0.9-0.2-8.4-0.2-8.9 0 0 0 0 0 0 0.1 0 9.4 0 18.8 0 28.1 0 0.1 0 0.2 0 0.3l0 0c0 0 0 0-0.1 0 -6-9.6-12-19.1-18-28.7 -3 0-5.9 0-8.9 0 0 0.3 0 0.6 0 0.9 0 5.7 0 11.4 0 17 0 0.7 0.1 1.3 0.4 1.9 1.2 3.1 2.3 6.2 3.5 9.3 1.4 3.8 2.9 7.6 4.3 11.4 0.1 0.2 0.1 0.5 0.5 0.7C103.4 61 103.4 52.2 103.4 43.3zM102.7 72.9c-0.1-0.4-0.2-0.7-0.3-0.9 -5.3-14.2-10.6-28.5-16-42.7 -0.3-0.8-0.3-0.8-1.1-0.8 -2.8 0-5.6 0-8.3 0 -0.9 0-0.9 0-1.2 0.8 -1.9 5-3.7 9.9-5.6 14.9 -0.9 2.4-1.8 4.8-2.7 7.2 -0.2 0.4-0.3 0.8 0 1.2 1.6 2.8 2.1 5.8 1.8 9 -0.2 3.3-1.7 6-4.2 8.1 -1.4 1.1-2.9 2.1-4.6 2.8 -0.2 0.1-0.5 0.1-0.6 0.4 3.1 0 6.1 0 9.2 0 1.2-3.3 2.3-6.6 3.5-9.8 5.6 0 11.1 0 16.7 0 1.1 3.3 2.2 6.5 3.4 9.8C96 72.9 99.3 72.9 102.7 72.9zM197.1 36.6c0 12.1 0 24.1 0 36 1.1 0.2 8.5 0.1 9.1-0.1 0-1.3 0-2.6 0-3.9 0-10.3 0-20.7 0-31 0-0.4 0-0.7 0.1-1.2 2.3 0 4.6 0 6.8 0s4.5 0 6.7 0c0.2-1.6 0.2-7.1-0.1-7.9 -12 0-23.9 0-35.9 0 0 2.7 0 5.3 0 8C188.2 36.6 192.6 36.6 197.1 36.6zM133 72.6c0.4 0 0.7 0.1 1 0.1 2.7 0 5.4 0 8.1 0 1.7 0 3.4-0.1 5.1-0.5 5.3-1.1 9.3-4 11.9-8.9 1.7-3.3 2.6-6.9 2.8-10.6 0.2-3.5-0.2-7-1-10.4 -0.9-3.7-2.7-6.8-5.5-9.4 -3.2-2.9-7-4.2-11.3-4.4 -3.5-0.1-6.9-0.1-10.4-0.1 -0.2 0-0.4 0-0.6 0.1 -0.2 1.8-0.1 6.9 0.2 7.6 1.3 0 2.7 0 4.1 0.1 2.1 0 4.3-0.1 6.4 0.3 2.6 0.4 4.8 1.5 6.5 3.5 1.2 1.5 1.9 3.2 2.2 5 0.5 2.7 0.5 5.5 0.4 8.3 -0.1 1.2-0.3 2.4-0.5 3.5 -0.9 3.6-3.1 6.1-6.7 7.3 -1.5 0.5-3 0.8-4.6 0.8 -2.4 0-4.7 0-7.1 0 -0.3 0-0.6 0-0.9 0C133 67.6 133 70 133 72.6zM166.3 28.5c-0.5 0.1-1 0.2-1.5 0.3 -1.9 0.6-3.1 2-3.9 3.7 -0.4 0.7-0.4 1.5 0 2.2 0.3 0.6 0.6 1.1 1 1.6 2.4 3.1 4.8 6.2 7.1 9.4 3.3 4.3 6.8 8.5 10.4 12.6 3.2 3.7 6.1 7.7 8.8 11.8 0.4 0.6 0.6 1.2 0.7 1.9 0.1 0.6 0.2 0.7 0.8 0.9 0.5 0.1 0.9 0 1.3-0.3 0.6-0.5 1.2-1 1.9-1.5 0.4-0.3 0.4-0.7 0.4-1.2 -0.1-0.5-0.4-0.9-0.9-1.1 -0.6-0.2-0.9-0.6-1.2-1.1 -0.2-0.3-0.4-0.5-0.5-0.8 -2.3-3.5-4.6-6.9-6.6-10.5 -2.5-4.5-5-9-7.5-13.4 -2.2-3.9-4.6-7.7-6.9-11.5 -0.4-0.6-0.8-1.2-1.2-1.7C167.9 28.9 167.2 28.5 166.3 28.5z"/><path d="M249.1 0C166.4 0 83.6 0 0.9 0 0.6 0 0.3 0 0 0c0 32.6 0 65.2 0 97.8 83.3 0 166.7 0 250 0 0-32.6 0-65.2 0-97.8C249.7 0 249.4 0 249.1 0zM240.7 88.2c-0.1 0.1-0.1 0.1-0.1 0.1 -0.1 0-0.1 0-0.1 0H9.9c-0.1 0-0.2-0.1-0.3-0.1 0-26.3 0-52.6 0-78.9 0.1 0 0.1 0 0.1 0 0.1 0 0.1 0 0.1 0 0.2 0 0.3 0 0.4 0 76.7 0 153.5 0 230.2 0 0.1 0 0.1 0.1 0.3 0.1C240.7 35.7 240.7 61.9 240.7 88.2z"/><path d="M67.5 56.1c-0.7-3.3-2.3-5.9-5.4-7.5 -0.2-0.2-0.5-0.4-0.8-0.6 0.3-0.3 0.5-0.4 0.7-0.6 1.9-1.5 3.2-3.4 3.7-5.8 0.5-2.2 0.4-4.4-0.3-6.5 -0.8-2.8-2.6-4.8-5.2-6 -1.6-0.7-3.3-1.1-5-1.2C52.8 28 50.5 28 48.1 28c-5.4 0-10.7 0-16 0 -0.2 0-0.5 0-0.8 0 0 14.7 0 29.3 0 44 0.3 0 0.5 0 0.8 0 5.9 0 11.9 0 17.8 0 2.1 0 4.1-0.1 6.2-0.4 3.3-0.6 6.3-2 8.7-4.4 1.3-1.3 2.2-2.8 2.6-4.6C67.9 60.5 68 58.3 67.5 56.1zM40.1 35.8c0.3-0.1 0.5-0.1 0.7-0.1 3.3 0 6.6 0 9.9 0 1 0 1.9 0.1 2.9 0.3 2 0.3 3.1 1.4 3.4 3.4 0.1 1 0.1 2-0.1 3 -0.5 2.1-2.2 3.6-4.4 3.6 -4 0-8 0-12 0 -0.1 0-0.2-0.1-0.4-0.1C40.1 42.3 40.1 38.9 40.1 35.8zM58.8 60.1c-0.5 2.3-2.2 3.9-4.7 4.1 -1.3 0.2-2.7 0.2-4.1 0.2 -3 0-6.1 0-9.2 0 -0.2 0-0.4 0-0.7 0 0-3.9 0-7.8 0-11.7 0.2-0.1 0.4-0.1 0.6-0.1 4.3 0 8.5 0 12.8 0 1.4 0 2.6 0.5 3.7 1.4 1 0.8 1.6 1.8 1.7 3.1C59 58 59 59.1 58.8 60.1z"/><path d="M130.6 28.3c-0.8-0.2-8.4-0.2-8.9 0 0 0.1 0 0.1 0 0.1 0 9.2 0 18.6 0 27.9 0 0.1 0 0.2 0 0.3 0 0 0 0-0.1 0 -6-9.5-12-19.1-18-28.5 -3 0-5.9 0-8.9 0 0 0.3 0 0.6 0 0.9 0 5.6 0 11.2 0 16.9 0 0.7 0.2 1.3 0.4 1.9 1.2 3.1 2.3 6.2 3.5 9.2 1.4 3.8 2.9 7.6 4.3 11.3 0.1 0.3 0.1 0.6 0.5 0.7 0-8.7 0-17.4 0-26 0.1 0.2 0.3 0.4 0.4 0.6 1.5 2.4 3 4.8 4.5 7.2 4.3 6.9 8.7 13.8 13 20.7 0.3 0.6 0.7 0.9 1.5 0.9 2.3-0.1 4.7-0.1 7.1-0.1 0.2 0 0.4-0.1 0.7-0.1C130.7 57.4 130.7 42.9 130.6 28.3z"/><path d="M102.3 71.2c-5.4-14.1-10.7-28.3-16-42.4C86 28 86 28 85.2 28c-2.7 0-5.5 0-8.3 0 -0.9 0-0.9 0-1.2 0.8 -1.9 5-3.7 9.8-5.6 14.8 -0.9 2.4-1.8 4.8-2.7 7.2 -0.1 0.4-0.2 0.8 0 1.2 1.6 2.8 2 5.8 1.8 8.9 -0.2 3.3-1.6 6-4.2 8.1 -1.4 1.1-2.9 2.1-4.6 2.8 -0.2 0.1-0.5 0.1-0.6 0.4 3.1 0 6.1 0 9.2 0 1.2-3.3 2.3-6.5 3.5-9.7 5.6 0 11.1 0 16.7 0 1.2 3.2 2.3 6.5 3.4 9.7 3.4 0 6.7 0 10.1 0C102.6 71.7 102.5 71.5 102.3 71.2zM75.3 55.1c0-0.6 5.3-15.5 5.8-16.2 1.9 5.4 3.7 10.7 5.6 16.1C86.1 55.1 76.4 55.2 75.3 55.1z"/><path d="M183.8 28.1c0 2.7 0 5.3 0 8 4.4 0 8.8 0 13.3 0 0 12 0 24 0 35.9 1.1 0.1 8.5 0.1 9.1-0.1 0-1.3 0-2.6 0-3.9 0-10.2 0-20.6 0-30.8 0-0.4 0.1-0.8 0.1-1.2 2.3 0 4.6 0 6.8 0s4.5 0.1 6.7 0c0.2-1.6 0.2-7.1-0.1-7.9C207.8 28.1 195.8 28.1 183.8 28.1z"/><path d="M155.3 32.6c-3.2-2.9-7-4.3-11.3-4.4 -3.4-0.1-6.9-0.1-10.4-0.1 -0.2 0-0.4 0.1-0.6 0.1 -0.2 1.8-0.1 6.9 0.2 7.6 1.4 0.1 2.7 0.1 4.1 0.1 2.1 0 4.3-0.1 6.4 0.3 2.6 0.4 4.8 1.4 6.5 3.5 1.1 1.5 1.8 3.2 2.2 5 0.6 2.8 0.6 5.5 0.4 8.2 0 1.1-0.2 2.3-0.5 3.5 -0.9 3.6-3.1 6.1-6.7 7.3 -1.5 0.5-3 0.8-4.6 0.8 -2.4 0-4.7 0-7.1 0 -0.3 0-0.6 0-0.9 0 0 2.5 0 5 0 7.5 0.4 0 0.7 0 0.9 0.3 2.7 0 5.4 0 8.1 0 1.7 0 3.4-0.2 5.1-0.5 5.4-1.1 9.4-4 11.9-8.8 1.7-3.3 2.6-6.9 2.8-10.5 0.2-3.5-0.1-7-1-10.3C159.9 38.2 158.1 35.1 155.3 32.6z"/><path d="M192.3 67.9c-0.5-0.2-0.9-0.6-1.2-1.1 -0.1-0.3-0.3-0.5-0.5-0.8 -2.3-3.4-4.6-6.9-6.6-10.4 -2.5-4.5-4.9-8.9-7.5-13.3 -2.3-3.8-4.6-7.7-6.9-11.4 -0.4-0.6-0.8-1.1-1.2-1.7 -0.5-0.7-1.2-1.1-2.1-1.1 -0.5 0.1-1 0.2-1.6 0.1 -1.9 0.6-3.1 2-3.9 3.7 -0.4 0.7-0.4 1.5 0 2.2 0.3 0.6 0.6 1.1 1 1.6 2.3 3.2 4.7 6.3 7.1 9.3 3.3 4.3 6.8 8.4 10.4 12.5 3.2 3.7 6.1 7.7 8.8 11.7 0.3 0.6 0.6 1.2 0.7 1.9 0.1 0.6 0.3 0.8 0.8 0.9 0.5 0.1 0.9 0 1.3-0.3 0.7-0.5 1.3-1 1.9-1.5 0.4-0.4 0.5-0.8 0.4-1.2C193.1 68.5 192.8 68.1 192.3 67.9z"/><path class="st0" d="M40.1 65.1c0-4 0-7.8 0-11.8 0.2 0 0.4-0.1 0.6-0.1 4.3 0 8.5 0 12.8 0 1.4 0 2.6 0.5 3.7 1.4 1 0.8 1.5 1.8 1.7 3.1 0.1 1.1 0.1 2.1-0.1 3.1 -0.5 2.3-2.2 3.8-4.7 4.1 -1.4 0.1-2.7 0.2-4.1 0.2 -3.1 0-6.2 0-9.2 0C40.6 65.2 40.4 65.2 40.1 65.1z"/><path class="st0" d="M40.1 46.4c0-3.4 0-6.8 0-10.3 0.2 0 0.4-0.1 0.7-0.1 3.3 0 6.6 0 9.9 0 1 0 1.9 0.1 2.9 0.3 2 0.3 3.1 1.4 3.4 3.4 0.2 1 0.2 2-0.1 3 -0.5 2.1-2.2 3.6-4.4 3.6 -4 0.1-8 0-12 0C40.4 46.4 40.3 46.4 40.1 46.4z"/><path class="st0" d="M86.7 55.7c-0.6 0.2-10.3 0.2-11.4 0.1 0-0.6 5.3-15.6 5.8-16.3C83 44.9 84.8 50.3 86.7 55.7z"/></svg>
