<?xml version="1.0" encoding="utf-8"?>
<!-- Generator: Adobe Illustrator 22.1.0, SVG Export Plug-In . SVG Version: 6.00 Build 0)  -->
<svg version="1.1" id="Слой_1" xmlns="http://www.w3.org/2000/svg" xmlns:xlink="http://www.w3.org/1999/xlink" x="0px" y="0px"
	 viewBox="0 0 24 24" style="enable-background:new 0 0 24 24;" xml:space="preserve">
<g>
	<g>
		<path d="M12,0C5.4,0,0,5.4,0,12c0,6.6,5.4,12,12,12c6.6,0,12-5.4,12-12C24,5.4,18.6,0,12,0z M12,22.6C6.2,22.6,1.4,17.8,1.4,12
			S6.2,1.4,12,1.4S22.6,6.2,22.6,12S17.8,22.6,12,22.6z"/>
	</g>
</g>
<g>
	<g>
		<path d="M12,2.9C7,2.9,2.9,7,2.9,12S7,21.1,12,21.1s9.1-4.1,9.1-9.1S17,2.9,12,2.9z M12,19.7c-4.3,0-7.7-3.5-7.7-7.7
			S7.7,4.3,12,4.3s7.7,3.5,7.7,7.7S16.3,19.7,12,19.7z"/>
	</g>
</g>
<g>
	<g>
		<path d="M16.5,13.5c-0.6-0.6-1.6-0.8-2.4-0.4L13,12l1.1-1.1c0.3,0.1,0.6,0.2,0.9,0.2c0.5,0,1.1-0.2,1.5-0.6c0.8-0.8,0.8-2.2,0-3
			c-0.8-0.8-2.2-0.8-3,0c-0.7,0.7-0.8,1.6-0.4,2.4L12,11l-1.1-1.1c0.4-0.8,0.2-1.7-0.4-2.4c-0.8-0.8-2.2-0.8-3,0
			c-0.8,0.8-0.8,2.2,0,3c0.7,0.7,1.6,0.8,2.4,0.4L11,12l-1.1,1.1c-0.8-0.4-1.8-0.2-2.4,0.4c-0.8,0.8-0.8,2.2,0,3
			c0.8,0.8,2.2,0.8,3,0c0.7-0.7,0.8-1.6,0.4-2.4L12,13l1.1,1.1c-0.4,0.8-0.2,1.7,0.4,2.4c0.8,0.8,2.2,0.8,3,0
			C17.3,15.7,17.3,14.3,16.5,13.5z M14.5,8.5c0.3-0.3,0.7-0.3,1,0c0.3,0.3,0.3,0.7,0,1c-0.3,0.3-0.7,0.3-1,0
			C14.2,9.2,14.2,8.8,14.5,8.5z M9.5,9.5c-0.3,0.3-0.7,0.3-1,0c-0.3-0.3-0.3-0.7,0-1c0.3-0.3,0.7-0.3,1,0C9.8,8.8,9.8,9.2,9.5,9.5z
			 M9.5,15.5c-0.3,0.3-0.7,0.3-1,0c-0.3-0.3-0.3-0.7,0-1c0.3-0.3,0.7-0.3,1,0C9.8,14.8,9.8,15.2,9.5,15.5z M15.5,15.5
			c-0.3,0.3-0.7,0.3-1,0c-0.3-0.3-0.3-0.7,0-1c0.3-0.3,0.7-0.3,1,0C15.8,14.8,15.8,15.2,15.5,15.5z"/>
	</g>
</g>
</svg>
