<?xml version="1.0" encoding="utf-8"?>
<!-- Generator: Adobe Illustrator 22.1.0, SVG Export Plug-In . SVG Version: 6.00 Build 0)  -->
<svg version="1.1" id="Слой_1" xmlns="http://www.w3.org/2000/svg" xmlns:xlink="http://www.w3.org/1999/xlink" x="0px" y="0px"
	 viewBox="0 0 24 24" style="enable-background:new 0 0 24 24;" xml:space="preserve">
<g>
	<path d="M22.1,23L20.4,5.3c0-0.5-0.5-0.8-0.9-0.8h-3c0-2.5-2-4.5-4.5-4.5S7.4,2,7.4,4.5h-3c-0.5,0-0.9,0.4-0.9,0.8L1.7,23
		c-0.1,0.6,0.4,1,0.9,1h18.6C21.8,24,22.2,23.5,22.1,23z M11.9,1.9c1.4,0,2.6,1.2,2.6,2.6H9.3C9.3,3.1,10.5,1.9,11.9,1.9z M3.7,22.1
		L5.3,6.4h2.2v1.9c0,0.5,0.4,0.9,0.9,0.9c0.5,0,0.9-0.4,0.9-0.9V6.4h5.3v1.9c0,0.5,0.4,0.9,0.9,0.9s0.9-0.4,0.9-0.9V6.4h2.2
		l1.6,15.8H3.7z"/>
</g>
</svg>
