<svg xmlns="http://www.w3.org/2000/svg" viewBox="0 0 24 24"><path d="M18.8 2.8C17 1 14.6 0 12 0 9.4 0 7 1 5.2 2.8c-1 1-1.7 2.1-2.2 3.4 -0.5 1.2-0.7 2.5-0.6 3.9 0 0.3 0.2 0.5 0.5 0.5 0.3 0 0.5-0.2 0.5-0.5C3.3 7.6 4.2 5.2 5.9 3.5c3.4-3.4 8.8-3.4 12.2 0 3.4 3.4 3.4 8.8 0 12.2 -1.3 1.3-2.8 2.1-4.6 2.4 0.1-0.9 0.1-1.9 0.2-2.8l1.7 0c0.9 0 1.7-0.3 2.4-1 0.6-0.6 1-1.5 1-2.4 0-0.9-0.3-1.8-0.9-2.3 -0.6-0.6-1.5-1-2.4-1 0 0 0 0 0 0h-1.6l0-3.1c0.1 0.1 0.3 0.1 0.4 0.3 0.2 0.2 0.4 0.5 0.4 0.9v0.2c0 0.3 0.2 0.5 0.5 0.5 0.1 0 0.3-0.1 0.4-0.1 0.1-0.1 0.1-0.2 0.1-0.4l0-0.2C15.6 6 15.4 5.4 15 5c-0.3-0.3-0.7-0.5-1.1-0.6l0-0.2c0-0.5-0.2-0.9-0.5-1.3 -0.3-0.3-0.8-0.5-1.3-0.5 -0.5 0-0.9 0.2-1.2 0.5 -0.3 0.3-0.5 0.8-0.5 1.3l0 0.1h-0.1c0 0 0 0 0 0C9.7 4.3 9 4.6 8.5 5.1 8 5.6 7.7 6.3 7.7 7c0 0.7 0.3 1.4 0.8 1.9C9 9.3 9.7 9.6 10.4 9.6l0.3 0 0 0.8c0.1 1.3 0.1 2.6 0.2 3.8H9.9c-0.7 0-1.3 0.3-1.7 0.7 -0.5 0.5-0.7 1.1-0.7 1.7 0 0.7 0.3 1.3 0.7 1.7 0.5 0.5 1.1 0.7 1.7 0.7l1.6 0c0.2 1.5 0.4 3 0.6 4.4 0 0.2 0.2 0.4 0.5 0.4 0 0 0 0 0 0 0.1 0 0.3-0.1 0.3-0.1 0.1-0.1 0.1-0.2 0.1-0.3 0.2-1.5 0.3-3 0.4-4.5 0.9-0.1 1.8-0.4 2.7-0.8 1-0.5 1.9-1.1 2.7-1.9 1.8-1.8 2.8-4.2 2.8-6.8C21.6 7 20.6 4.6 18.8 2.8zM12.7 15.2c-0.1 1.2-0.1 2.5-0.2 3.8 -0.1-1.2-0.3-2.5-0.4-3.8H12.7zM11.8 5.3L11.8 5.3c0.3 0 0.5-0.2 0.5-0.5 0-0.3-0.2-0.5-0.5-0.5 0 0 0 0 0 0h-0.4l0-0.1c0-0.2 0.1-0.4 0.2-0.5 0 0 0 0 0 0 0.1-0.1 0.3-0.2 0.5-0.2 0.2 0 0.4 0.1 0.5 0.2 0.1 0.1 0.2 0.3 0.2 0.5l-0.1 6.1c0 1.3-0.1 2.6-0.1 3.9H12c-0.1-1.3-0.2-2.6-0.2-3.9l-0.2-5H11.8zM11.3 18.2H9.9c-0.4 0-0.8-0.2-1-0.4 -0.3-0.3-0.4-0.6-0.4-1 0-0.4 0.2-0.8 0.4-1 0.3-0.3 0.6-0.4 1-0.4 0 0 0 0 0 0H11C11.1 16.2 11.2 17.2 11.3 18.2zM13.7 14.2c0.1-1.3 0.1-2.6 0.1-3.9l0-0.8h1.6c0 0 0 0 0 0 0.6 0 1.2 0.2 1.6 0.7 0.4 0.4 0.6 1 0.6 1.6 0 0.6-0.2 1.2-0.7 1.6 -0.4 0.4-1 0.7-1.6 0.7L13.7 14.2zM10.4 5.3C10.4 5.3 10.4 5.3 10.4 5.3h0.1l0.2 3.2h-0.3c-0.4 0-0.8-0.2-1.1-0.5C8.9 7.8 8.8 7.4 8.8 7c0-0.4 0.2-0.8 0.5-1.1C9.5 5.5 9.9 5.3 10.4 5.3z"/></svg>
