<?xml version="1.0" encoding="utf-8"?>
<!-- Generator: Adobe Illustrator 22.1.0, SVG Export Plug-In . SVG Version: 6.00 Build 0)  -->
<svg version="1.1" id="Слой_1" xmlns="http://www.w3.org/2000/svg" xmlns:xlink="http://www.w3.org/1999/xlink" x="0px" y="0px"
	 viewBox="0 0 24 24" style="enable-background:new 0 0 24 24;" xml:space="preserve">
<g>
	<g>
		<path d="M13.8,23.1h-1.3v-7.9c0-0.3-0.2-0.5-0.5-0.5c-0.3,0-0.5,0.2-0.5,0.5v7.9h-1.3v-10h3.6 M14.7,14.5c0.2,0,0.3-0.1,0.5-0.1
			c0,0.8,0.7,1.5,1.5,1.5h0.4v7.7c0,0.3,0.2,0.5,0.5,0.5h2.1c0,0,0,0,0,0c0,0,0,0,0,0h2.1c0.3,0,0.5-0.2,0.5-0.5v-7.7h0.4
			c0.8,0,1.5-0.7,1.5-1.5v-3.8c0-1.7-1.2-3.1-2.7-3.6c0.3-0.4,0.5-0.9,0.5-1.4V5.2c0-1.2-1-2.2-2.2-2.2c-1.2,0-2.2,1-2.2,2.2v0.4
			c0,0.5,0.2,1,0.5,1.4c-0.4,0.1-0.7,0.3-1.1,0.5V7.1c0-1.4-1.2-2.6-2.6-2.6H14c0.4-0.4,0.6-1,0.6-1.6V2.6C14.6,1.1,13.4,0,12,0
			S9.4,1.1,9.4,2.6v0.4c0,0.6,0.2,1.2,0.6,1.6H9.7c-1.4,0-2.6,1.2-2.6,2.6v0.3C6.8,7.3,6.5,7.1,6.1,7c0.3-0.4,0.5-0.9,0.5-1.4V5.2
			C6.6,4,5.6,3,4.4,3S2.2,4,2.2,5.2v0.4c0,0.5,0.2,1,0.5,1.4C1.2,7.4,0,8.9,0,10.6v3.8c0,0.8,0.7,1.5,1.5,1.5h0.4v7.7
			c0,0.3,0.2,0.5,0.5,0.5h2.1c0,0,0,0,0,0s0,0,0,0h2.1c0.3,0,0.5-0.2,0.5-0.5v-7.7h0.4c0.8,0,1.5-0.7,1.5-1.5
			c0.2,0.1,0.3,0.1,0.5,0.1v9c0,0.3,0.2,0.5,0.5,0.5h4.5c0.3,0,0.5-0.2,0.5-0.5V14.5z M3.2,5.2c0-0.7,0.6-1.2,1.2-1.2
			s1.2,0.6,1.2,1.2v0.4c0,0.7-0.6,1.2-1.2,1.2S3.2,6.3,3.2,5.6V5.2z M6,23.1H4.9v-7.2c0-0.3-0.2-0.5-0.5-0.5s-0.5,0.2-0.5,0.5v0.5
			c0,0,0,0,0,0.1v6.7H2.8v-9H6V23.1z M7.9,14.4c0,0.3-0.2,0.5-0.5,0.5H6.9v-2.5c0-0.3-0.2-0.5-0.5-0.5C6.2,12,6,12.2,6,12.4v0.6H2.8
			v-2.1c0-0.3-0.2-0.5-0.5-0.5s-0.5,0.2-0.5,0.5v4H1.5c-0.3,0-0.5-0.2-0.5-0.5v-3.8c0-1.5,1.2-2.8,2.8-2.8h1.4c0.8,0,1.5,0.3,2,0.9
			c0,0,0,0,0,0V12c0,0.7,0.3,1.3,0.7,1.8L7.9,14.4L7.9,14.4z M12,0.9c0.9,0,1.6,0.7,1.6,1.6v0.4c0,0.9-0.7,1.6-1.6,1.6
			s-1.6-0.7-1.6-1.6V2.6l0,0C10.4,1.7,11.1,0.9,12,0.9z M15.9,12c0,0.7-0.5,1.4-1.2,1.6V7.1c0-0.3-0.2-0.5-0.5-0.5
			c-0.3,0-0.5,0.2-0.5,0.5v5h-3.6v-5c0-0.3-0.2-0.5-0.5-0.5c-0.3,0-0.5,0.2-0.5,0.5v6.4c-0.7-0.2-1.2-0.8-1.2-1.6V7.1
			c0-0.9,0.7-1.6,1.6-1.6h1.8v1.3c0,0.3,0.2,0.5,0.5,0.5s0.5-0.2,0.5-0.5V5.5h1.8c0.9,0,1.6,0.7,1.6,1.6V12z M18.4,5.2
			c0-0.7,0.6-1.2,1.2-1.2c0.7,0,1.2,0.6,1.2,1.2v0.4c0,0.7-0.6,1.2-1.2,1.2c-0.7,0-1.2-0.6-1.2-1.2V5.2z M21.2,23.1h-1.1v-6.7
			c0,0,0,0,0-0.1v-0.5c0-0.3-0.2-0.5-0.5-0.5c-0.3,0-0.5,0.2-0.5,0.5v7.2H18v-9h3.2V23.1z M22.5,14.9h-0.4v-4c0-0.3-0.2-0.5-0.5-0.5
			c-0.3,0-0.5,0.2-0.5,0.5v2.1H18v-0.6c0-0.3-0.2-0.5-0.5-0.5c-0.3,0-0.5,0.2-0.5,0.5v2.5h-0.4c-0.3,0-0.5-0.2-0.5-0.5v-0.6
			c0.4-0.5,0.7-1.1,0.7-1.8V8.7c0.5-0.6,1.3-0.9,2-0.9h1.4c1.5,0,2.8,1.2,2.8,2.8v3.8h0C23.1,14.7,22.8,14.9,22.5,14.9z"/>
	</g>
</g>
</svg>
