<?xml version="1.0" encoding="utf-8"?>
<!-- Generator: Adobe Illustrator 22.1.0, SVG Export Plug-In . SVG Version: 6.00 Build 0)  -->
<svg version="1.1" id="Слой_1" xmlns="http://www.w3.org/2000/svg" xmlns:xlink="http://www.w3.org/1999/xlink" x="0px" y="0px"
	 viewBox="0 0 24 24" style="enable-background:new 0 0 24 24;" xml:space="preserve">
<g>
	<g>
		<path d="M16,2.7c-3.7-3.7-9.6-3.7-13.3,0c-3.7,3.7-3.7,9.6,0,13.3c3.3,3.3,8.3,3.6,12,1.1c0.1,0.4,0.3,0.7,0.5,1l5.3,5.3
			c0.8,0.8,2,0.8,2.8,0c0.8-0.8,0.8-2,0-2.8l-5.3-5.3c-0.3-0.3-0.6-0.5-1-0.5C19.6,11.1,19.3,6,16,2.7z M14.3,14.3
			c-2.7,2.7-7.2,2.7-9.9,0c-2.7-2.7-2.7-7.2,0-9.9c2.7-2.7,7.2-2.7,9.9,0C17.1,7.2,17.1,11.6,14.3,14.3z"/>
	</g>
</g>
</svg>
