<?xml version="1.0" encoding="utf-8"?>
<!-- Generator: Adobe Illustrator 22.1.0, SVG Export Plug-In . SVG Version: 6.00 Build 0)  -->
<svg version="1.1" id="Слой_1" xmlns="http://www.w3.org/2000/svg" xmlns:xlink="http://www.w3.org/1999/xlink" x="0px" y="0px"
	 viewBox="0 0 24 24" style="enable-background:new 0 0 24 24;" xml:space="preserve">
<path d="M23.2,8.5l-7.2-1L12.8,1c-0.3-0.7-1.3-0.7-1.7,0L8,7.5l-7.2,1C0,8.7-0.3,9.6,0.3,10.1l5.2,5l-1.2,7.1
	c-0.1,0.8,0.7,1.3,1.4,1l6.4-3.4l6.4,3.4c0.7,0.4,1.5-0.2,1.4-1l-1.2-7.1l5.2-5C24.3,9.6,24,8.7,23.2,8.5z M16.9,14.2
	c-0.2,0.2-0.3,0.5-0.3,0.8l1,5.7l-5.2-2.7c-0.3-0.1-0.6-0.1-0.9,0l-5.2,2.7l1-5.7c0.1-0.3,0-0.6-0.3-0.8L3,10.1l5.8-0.8
	c0.3,0,0.6-0.2,0.7-0.5L12,3.6l2.6,5.2c0.1,0.3,0.4,0.5,0.7,0.5l5.8,0.8L16.9,14.2z"/>
</svg>
