<?xml version="1.0" encoding="utf-8"?>
<!-- Generator: Adobe Illustrator 22.1.0, SVG Export Plug-In . SVG Version: 6.00 Build 0)  -->
<svg version="1.1" id="Слой_1" xmlns="http://www.w3.org/2000/svg" xmlns:xlink="http://www.w3.org/1999/xlink" x="0px" y="0px"
	 viewBox="0 0 24 24" style="enable-background:new 0 0 24 24;" xml:space="preserve">
<g>
	<g>
		<g>
			<path d="M16,11.7c1.5-1.2,2.5-3.1,2.5-5.2C18.5,2.9,15.6,0,12,0S5.5,2.9,5.5,6.5c0,2.1,1,4,2.5,5.2c-4.6,1.6-8,6-8,11.3
				c0,0.6,0.5,1,1,1h22c0.6,0,1-0.5,1-1C24,17.6,20.5,13.3,16,11.7z M7.5,6.5C7.5,4,9.5,2,12,2s4.5,2,4.5,4.5S14.5,11,12,11
				S7.5,9,7.5,6.5z M2.1,22c0.5-5,4.8-9,9.9-9s9.4,3.9,9.9,9H2.1z"/>
		</g>
	</g>
</g>
</svg>
